<svg width="12" height="12" viewBox="0 0 12 12" fill="none" xmlns="http://www.w3.org/2000/svg" data-fui-icon="true">
  <path
    d="M6 0C6.41421 0 6.75 0.335786 6.75 0.75C6.75 1.16421 6.41421 1.5 6 1.5H3.75C2.50736 1.5 1.5 2.50736 1.5 3.75V8.25C1.5 8.73012 1.65099 9.1747 1.90723 9.54004C1.92625 9.51559 1.94726 9.4922 1.96973 9.46973L6.11621 5.32324C6.48323 4.95626 6.98098 4.75 7.5 4.75C8.01902 4.75 8.51677 4.95626 8.88379 5.32324L10.5 6.93945V6C10.5 5.58579 10.8358 5.25 11.25 5.25C11.6642 5.25 12 5.58579 12 6V8.25C12 10.3211 10.3211 12 8.25 12H3.75C1.67893 12 0 10.3211 0 8.25V3.75C0 1.67893 1.67893 1.28851e-07 3.75 0H6ZM7.5 6.25C7.3788 6.25 7.26248 6.29811 7.17676 6.38379L3.14453 10.415C3.33737 10.4689 3.53999 10.5 3.75 10.5H8.25C9.2487 10.5 10.0937 9.84878 10.3877 8.94824L7.82324 6.38379C7.73752 6.29811 7.6212 6.25 7.5 6.25ZM4 2.75C4.69036 2.75 5.25 3.30964 5.25 4C5.25 4.69036 4.69036 5.25 4 5.25C3.30964 5.25 2.75 4.69036 2.75 4C2.75 3.30964 3.30964 2.75 4 2.75ZM9.75 0C10.1642 0 10.5 0.335786 10.5 0.75V1.5H11.25C11.6642 1.5 12 1.83579 12 2.25C12 2.66421 11.6642 3 11.25 3H10.5V3.75C10.5 4.16421 10.1642 4.5 9.75 4.5C9.33579 4.5 9 4.16421 9 3.75V3H8.25C7.83579 3 7.5 2.66421 7.5 2.25C7.5 1.83579 7.83579 1.5 8.25 1.5H9V0.75C9 0.335786 9.33579 0 9.75 0Z"
    fill="currentColor"
  />
</svg>
