<svg width="32" height="32" viewBox="0 0 32 32" fill="none" xmlns="http://www.w3.org/2000/svg" data-fui-icon="true">
  <path
    d="M13.3135 1.43071C14.9974 0.554754 17.0026 0.554754 18.6865 1.43071L29.3076 6.95512C30.3475 7.49613 30.9999 8.57102 31 9.74321V11.2862C30.9997 12.2326 30.2325 12.9998 29.2861 13H29V24.7881C29 24.7993 28.9984 24.8103 28.998 24.8213C30.2075 25.6581 31 27.0549 31 28.6368C30.9998 29.9419 29.9418 30.9999 28.6367 31H3.36328C2.05816 30.9999 1.0002 29.9419 1 28.6368C1 27.0549 1.79252 25.6581 3.00195 24.8213C3.00157 24.81 3 24.7986 3 24.7872V13H2.71387C1.76746 12.9998 1.00027 12.2326 1 11.2862V9.74321C1.00011 8.57103 1.65252 7.49614 2.69238 6.95512L13.3135 1.43071ZM5.63672 26C4.1807 26 3 27.1807 3 28.6368C3.00019 28.8373 3.16273 28.9999 3.36328 29H28.6367C28.8373 28.9999 28.9998 28.8373 29 28.6368C29 27.1807 27.8193 26 26.3633 26H5.63672ZM5 13V24.045C5.20822 24.0164 5.42064 24 5.63672 24H11V13H5ZM21 13V24H26.3633C26.5794 24 26.7918 24.0164 27 24.045V13H21ZM13 13V24H19V13H13ZM17.7637 3.20512C16.6582 2.63009 15.3418 2.63009 14.2363 3.20512L3.61523 8.72954C3.23728 8.9263 3.00011 9.3171 3 9.74321V11H29V9.74321C28.9999 9.31709 28.7627 8.9263 28.3848 8.72954L17.7637 3.20512Z"
    fill="currentColor"
  />
</svg>
