<svg width="24" height="24" viewBox="0 0 24 24" fill="none" xmlns="http://www.w3.org/2000/svg" data-fui-icon="true">
  <path
    d="M10.083 1.44964C11.2896 0.846337 12.7104 0.846333 13.917 1.44964L21.7168 5.35101C22.503 5.74426 22.9998 6.54914 23 7.42816V8.72601C23 9.42939 22.4299 10.0002 21.7266 10.0004H21.002V17.8168C22.1009 18.4927 22.834 19.7066 22.834 21.0912C22.8337 22.1452 21.9788 23.0001 20.9248 23.0004H3.07617C2.02196 23.0004 1.16724 22.1454 1.16699 21.0912C1.16702 19.7059 1.90022 18.4915 3 17.8159V10.0004H2.27344C1.5701 10.0002 1 9.4294 1 8.72601V7.42816C1.00017 6.54913 1.49702 5.74426 2.2832 5.35101L10.083 1.44964ZM5.00781 18.7504C3.71503 18.7505 2.66704 19.7985 2.66699 21.0912C2.66724 21.317 2.85039 21.5004 3.07617 21.5004H20.9248C21.1503 21.5001 21.3337 21.3168 21.334 21.0912C21.3339 19.7987 20.2857 18.7508 18.9932 18.7504H5.00781ZM15.501 10.0004V17.2504H18.9932C19.1657 17.2505 19.3354 17.2625 19.502 17.2846V10.0004H15.501ZM4.5 10.0004V17.2836C4.66608 17.2617 4.83575 17.2504 5.00781 17.2504H8.50098V10.0004H4.5ZM10.001 10.0004V17.2504H14.001V10.0004H10.001ZM13.2461 2.79144C12.4618 2.39927 11.5382 2.39928 10.7539 2.79144L2.9541 6.69281C2.67597 6.83193 2.50017 7.1172 2.5 7.42816V8.50042H21.5V7.42816C21.4998 7.1172 21.324 6.83193 21.0459 6.69281L13.2461 2.79144Z"
    fill="currentColor"
  />
</svg>
