<svg width="16" height="16" viewBox="0 0 16 16" fill="none" xmlns="http://www.w3.org/2000/svg" data-fui-icon="true">
  <path
    d="M6.66992 1.28079C7.51621 0.901179 8.48481 0.90105 9.33105 1.28079L13.8184 3.29446C14.537 3.61697 14.9999 4.33194 15 5.11965V6.16653C15 6.6934 14.6936 7.14735 14.25 7.3638V12.6919C14.6973 12.9457 14.9998 13.4253 15 13.9761C15 14.5406 14.542 14.9983 13.9775 14.9986H2.02344C1.45875 14.9986 1.00098 14.5408 1.00098 13.9761C1.00115 13.4255 1.30307 12.9458 1.75 12.6919V7.3638C1.30638 7.14735 1.00002 6.6934 1 6.16653V5.11965C1.00005 4.33193 1.46295 3.61697 2.18164 3.29446L6.66992 1.28079ZM3.75 7.49954V12.4995H5.25V7.49954H3.75ZM7.25 7.49954V12.4995H8.75V7.49954H7.25ZM10.75 7.49954V12.4995H12.25V7.49954H10.75ZM8.51172 3.10598C8.18621 2.95992 7.81379 2.95993 7.48828 3.10598L3 5.11965V5.49954H13V5.11965L8.51172 3.10598Z"
    fill="currentColor"
  />
</svg>
