<svg width="24" height="24" viewBox="0 0 24 24" fill="none" xmlns="http://www.w3.org/2000/svg" data-fui-icon="true">
  <path
    d="M15.7104 20.5C15.8936 20.5 16.0131 20.6903 15.9194 20.8476C15.0934 22.2346 13.5082 23 11.9995 23C10.491 22.9999 8.90571 22.2345 8.07966 20.8476C7.98593 20.6903 8.1055 20.5 8.28868 20.5H15.7104ZM11.9995 1C15.3043 1.00001 17.3462 2.62472 18.5435 4.56934C19.7048 6.4556 20.0696 8.62534 20.189 9.86719C20.2383 10.3792 20.4102 10.8259 20.6861 11.1543L21.064 11.6045C22.4707 13.2783 22.4707 15.7217 21.064 17.3955C20.209 18.4126 18.9475 19 17.6187 19H6.4507C5.07005 18.9999 3.76569 18.3659 2.91262 17.2803C1.63068 15.6486 1.6307 13.3514 2.91262 11.7197L3.32863 11.1895C3.59601 10.849 3.75923 10.3975 3.80813 9.88281C3.92567 8.64567 4.28798 6.47299 5.44777 4.58203C6.6438 2.63228 8.6874 1.0001 11.9995 1Z"
    fill="currentColor"
  />
</svg>
