<svg width="16" height="16" viewBox="0 0 16 16" fill="none" xmlns="http://www.w3.org/2000/svg" data-fui-icon="true">
  <path
    d="M11.7498 0.000244137C14.0969 0.00037608 15.9998 1.90309 15.9998 4.25018V8.62511C15.9996 9.03913 15.6638 9.37497 15.2498 9.3751C14.8356 9.3751 14.4999 9.03921 14.4998 8.62511V4.25018C14.4998 2.7315 13.2685 1.50035 11.7498 1.50022H4.24994C2.73118 1.50022 1.49998 2.73142 1.49998 4.25018V11.7501C1.50011 13.2687 2.73126 14.5 4.24994 14.5H8.62487C9.03896 14.5002 9.37486 14.8359 9.37486 15.25C9.37473 15.664 9.03888 15.9999 8.62487 16H4.24994C1.90284 16 0.000131944 14.0971 0 11.7501V4.25018C1.28851e-07 1.90301 1.90276 0.000244137 4.24994 0.000244137H11.7498ZM12.9998 10.0001C13.414 10.0001 13.7498 10.3359 13.7498 10.7501V12.2501H15.2498C15.664 12.2501 15.9998 12.5858 15.9998 13C15.9996 13.4141 15.6639 13.75 15.2498 13.75H13.7498V15.25C13.7497 15.6641 13.4139 16 12.9998 16C12.5857 16 12.2499 15.6641 12.2498 15.25V13.75H10.7498C10.3357 13.75 10 13.4141 9.99985 13C9.99985 12.5858 10.3356 12.2501 10.7498 12.2501H12.2498V10.7501C12.2498 10.3359 12.5856 10.0001 12.9998 10.0001Z"
    fill="currentColor"
  />
</svg>
