<svg width="20" height="20" viewBox="0 0 20 20" fill="none" xmlns="http://www.w3.org/2000/svg" data-fui-icon="true">
  <path
    d="M14.6504 0C17.6048 0.000210779 19.9997 2.39525 20 5.34961V14.6309C19.7652 14.5477 19.5133 14.5 19.25 14.5H19V14.25C19 13.0074 17.9926 12 16.75 12C15.5074 12 14.5 13.0074 14.5 14.25V14.5H14.25C13.0074 14.5 12 15.5074 12 16.75C12 17.9926 13.0074 19 14.25 19H14.5V19.25C14.5 19.5133 14.5478 19.7652 14.6309 20H5.34961C2.3952 19.9998 0.00021078 17.6048 0 14.6504V5.34961C0.000277065 2.39525 2.39524 0.000211094 5.34961 0H14.6504ZM16.75 13.5C17.1642 13.5 17.5 13.8358 17.5 14.25V16H19.25C19.6642 16 20 16.3358 20 16.75C20 17.1642 19.6642 17.5 19.25 17.5H17.5V19.25C17.5 19.6642 17.1642 20 16.75 20C16.3358 20 16 19.6642 16 19.25V17.5H14.25C13.8358 17.5 13.5 17.1642 13.5 16.75C13.5 16.3358 13.8358 16 14.25 16H16V14.25C16 13.8358 16.3358 13.5 16.75 13.5Z"
    fill="currentColor"
  />
</svg>
