<svg width="32" height="32" viewBox="0 0 32 32" fill="none" xmlns="http://www.w3.org/2000/svg" data-fui-icon="true">
  <path
    d="M22.75 1C27.3063 1 31 4.69365 31 9.25V22.75C31 22.9544 30.9892 23.1568 30.9746 23.3574C30.7452 23.288 30.5021 23.25 30.25 23.25H28.25V21.25C28.25 19.8693 27.1307 18.75 25.75 18.75C24.3693 18.75 23.25 19.8693 23.25 21.25V23.25H21.25C19.8693 23.25 18.75 24.3693 18.75 25.75C18.75 27.1307 19.8693 28.25 21.25 28.25H23.25V30.25C23.25 30.5021 23.288 30.7452 23.3574 30.9746C23.1568 30.9892 22.9544 31 22.75 31H9.25C4.69365 31 1 27.3063 1 22.75V9.25C1 4.69365 4.69365 1 9.25 1H22.75ZM25.75 20.5C26.1642 20.5 26.5 20.8358 26.5 21.25V25H30.25C30.6642 25 31 25.3358 31 25.75C31 26.1642 30.6642 26.5 30.25 26.5H26.5V30.25C26.5 30.6642 26.1642 31 25.75 31C25.3358 31 25 30.6642 25 30.25V26.5H21.25C20.8358 26.5 20.5 26.1642 20.5 25.75C20.5 25.3358 20.8358 25 21.25 25H25V21.25C25 20.8358 25.3358 20.5 25.75 20.5ZM28.8975 28.25C28.6938 28.4774 28.4774 28.6929 28.25 28.8965V28.25H28.8975Z"
    fill="currentColor"
  />
</svg>
