<svg width="16" height="16" viewBox="0 0 16 16" fill="none" xmlns="http://www.w3.org/2000/svg" data-fui-icon="true">
  <path
    d="M7.99805 0.464844C12.1582 0.464976 15.5302 3.83876 15.5303 7.99902C15.5302 8.60904 15.4553 9.20153 15.3184 9.76953C15.0005 9.5977 14.6367 9.5 14.25 9.5C14.25 9.33427 14.2303 9.17311 14.1963 9.01758C14.2504 8.68597 14.2802 8.34592 14.2803 7.99902C14.2802 4.52909 11.4679 1.71595 7.99805 1.71582C4.52821 1.71593 1.71491 4.52908 1.71484 7.99902C1.71517 11.4687 4.52837 14.2821 7.99805 14.2822C8.6067 14.2822 9.19442 14.1927 9.75098 14.0312C9.75699 14.4725 9.89009 14.8826 10.1152 15.2275C9.44342 15.424 8.73338 15.5322 7.99805 15.5322C3.83799 15.5321 0.465171 12.1591 0.464844 7.99902C0.464907 3.83875 3.83783 0.464956 7.99805 0.464844ZM12 8.75C12.4142 8.75 12.75 9.08579 12.75 9.5V11H14.25C14.6642 11 15 11.3358 15 11.75C15 12.1642 14.6642 12.5 14.25 12.5H12.75V14C12.75 14.4142 12.4142 14.75 12 14.75C11.5858 14.75 11.25 14.4142 11.25 14V12.5H9.75C9.3358 12.5 9.00003 12.1642 9 11.75C9 11.3358 9.33579 11 9.75 11H11.25V9.5C11.25 9.08579 11.5858 8.75 12 8.75ZM7.99805 3.53613C10.2208 3.5362 12.0629 5.16117 12.4033 7.28809C12.2724 7.26436 12.1378 7.25 12 7.25C11.7016 7.25 11.4169 7.30855 11.1562 7.41406C10.8812 5.91892 9.57261 4.7862 7.99805 4.78613C6.22381 4.78623 4.7852 6.22472 4.78516 7.99902C4.78543 9.62973 6.00099 10.9755 7.5752 11.1826C7.52798 11.3641 7.5 11.5537 7.5 11.75C7.50001 11.9921 7.53958 12.2248 7.61035 12.4434C5.32746 12.2467 3.53544 10.3328 3.53516 7.99902C3.5352 5.53438 5.53344 3.53623 7.99805 3.53613ZM7.99902 6.7832C8.67103 6.78332 9.21658 7.32802 9.2168 8C9.21647 8.67189 8.67096 9.21765 7.99902 9.21777C7.32717 9.21756 6.78255 8.67183 6.78223 8C6.78244 7.32808 7.3271 6.78342 7.99902 6.7832Z"
    fill="currentColor"
  />
</svg>
