<svg width="20" height="20" viewBox="0 0 20 20" fill="none" xmlns="http://www.w3.org/2000/svg" data-fui-icon="true">
  <path
    d="M10 0.5C15.2467 0.5 19.5 4.75329 19.5 10C19.5 10.6564 19.4324 11.2971 19.3057 11.916C19.2494 11.8982 19.1932 11.8793 19.1357 11.8643C18.8965 10.9472 18.2939 10.1787 17.4922 9.7168C17.3432 5.70593 14.0473 2.5 10 2.5C5.85786 2.5 2.5 5.85786 2.5 10C2.5 14.1421 5.85786 17.5 10 17.5C10.1863 17.5 10.3708 17.4899 10.5537 17.4766C11.0148 18.0338 11.6432 18.4476 12.3643 18.6357C12.4107 18.8139 12.4713 18.9864 12.5439 19.1523C11.734 19.377 10.8814 19.5 10 19.5C4.75329 19.5 0.5 15.2467 0.5 10C0.5 4.75329 4.75329 0.5 10 0.5ZM15.75 11.5C16.4404 11.5 17 12.0596 17 12.75V14H18.25C18.9404 14 19.5 14.5596 19.5 15.25C19.5 15.9403 18.9403 16.5 18.25 16.5H17V17.75C17 18.4404 16.4404 19 15.75 19C15.0596 19 14.5 18.4404 14.5 17.75V16.5H13.25C12.5597 16.5 12 15.9403 12 15.25C12 14.5596 12.5596 14 13.25 14H14.5V12.75C14.5 12.0596 15.0596 11.5 15.75 11.5ZM10 4.40039C12.8407 4.40063 15.1863 6.51632 15.5498 9.25781C14.8166 9.2992 14.1435 9.56379 13.5996 9.98828C13.5931 8.00579 11.984 6.40065 10 6.40039C8.01208 6.4006 6.4006 8.01208 6.40039 10C6.4006 11.9879 8.01208 13.6004 10 13.6006C10.0557 13.6006 10.111 13.5982 10.166 13.5957C9.90103 14.0883 9.75 14.6513 9.75 15.25C9.75 15.3664 9.75648 15.4813 9.76758 15.5947C6.7829 15.4726 4.4006 13.0146 4.40039 10C4.4006 6.90752 6.90752 4.4006 10 4.40039ZM10 8.25C10.9665 8.25 11.75 9.0335 11.75 10C11.75 10.9665 10.9665 11.75 10 11.75C9.0335 11.75 8.25 10.9665 8.25 10C8.25 9.0335 9.0335 8.25 10 8.25Z"
    fill="currentColor"
  />
</svg>
