<svg width="16" height="16" viewBox="0 0 16 16" fill="none" xmlns="http://www.w3.org/2000/svg" data-fui-icon="true">
  <path
    d="M7.99512 0.494141C12.1369 0.494404 15.4949 3.85331 15.4951 7.99512C15.4951 8.42249 15.4574 8.84118 15.3887 9.24902C15.175 9.15183 14.9467 9.08108 14.708 9.04102C14.5931 8.35823 14.2265 7.76213 13.708 7.34863C13.3867 4.47744 10.952 2.24536 7.99512 2.24512C4.8196 2.24512 2.24532 4.81965 2.24512 7.99512C2.24538 11.1248 4.7461 13.6686 7.8584 13.7412C8.24655 14.1088 8.74103 14.3655 9.29199 14.458C9.34377 14.7664 9.44778 15.0568 9.59277 15.3213C9.07776 15.4331 8.54359 15.4951 7.99512 15.4951C3.85314 15.4951 0.495381 12.137 0.495117 7.99512C0.495318 3.85315 3.85311 0.494141 7.99512 0.494141ZM12 8.5C12.5523 8.5 13 8.94771 13 9.5V10.75H14.25C14.8023 10.75 15.25 11.1977 15.25 11.75C15.25 12.3023 14.8023 12.75 14.25 12.75H13V14C13 14.5523 12.5523 15 12 15C11.4477 15 11 14.5523 11 14V12.75H9.75C9.19773 12.75 8.75003 12.3023 8.75 11.75C8.75 11.1977 9.19771 10.75 9.75 10.75H11V9.5C11 8.94771 11.4477 8.5 12 8.5ZM7.99902 3.52539C10.043 3.52539 11.7664 4.89552 12.3018 6.76758C12.2026 6.75674 12.102 6.75 12 6.75C11.4817 6.75 10.9972 6.89316 10.584 7.14258C10.2242 6.05811 9.20412 5.27539 7.99902 5.27539C6.49439 5.2756 5.27468 6.49538 5.27441 8C5.27463 9.24287 6.10749 10.2898 7.24512 10.6172C7.08837 10.9626 7 11.3457 7 11.75C7 11.9663 7.02697 12.1762 7.07422 12.3779C5.04697 11.9515 3.52464 10.154 3.52441 8C3.52468 5.52888 5.52789 3.5256 7.99902 3.52539ZM8 6.62598C8.75917 6.62624 9.375 7.24175 9.375 8.00098C9.37447 8.75976 8.75884 9.37571 8 9.37598C7.24093 9.37598 6.62553 8.75992 6.625 8.00098C6.625 7.24159 7.24061 6.62598 8 6.62598Z"
    fill="currentColor"
  />
</svg>
