<svg width="12" height="12" viewBox="0 0 12 12" fill="none" xmlns="http://www.w3.org/2000/svg" data-fui-icon="true">
  <path
    d="M7.5 10.5C7.91419 10.5 8.24997 10.8358 8.25 11.25C8.25 11.6642 7.91421 12 7.5 12H4.5C4.08579 12 3.75 11.6642 3.75 11.25C3.75003 10.8358 4.08581 10.5 4.5 10.5H7.5ZM6.00098 0C8.49209 4.82202e-05 10.502 2.03391 10.502 4.53027C10.5019 5.91673 9.88117 7.15827 8.90625 7.98828C8.78147 8.09456 8.75 8.19685 8.75 8.25C8.74997 9.0784 8.07841 9.75 7.25 9.75H4.75C3.92167 9.74991 3.25003 9.07834 3.25 8.25C3.25 8.19607 3.21831 8.09338 3.09277 7.98633C2.11938 7.15625 1.50009 5.91538 1.5 4.53027C1.5 2.03395 3.50987 8.90861e-05 6.00098 0ZM6.00098 1.5C4.34928 1.50009 3 2.85136 3 4.53027L3.00488 4.70312C3.05276 5.56185 3.45492 6.32327 4.06641 6.84473C4.43699 7.16078 4.75 7.65191 4.75 8.25H7.25C7.25 7.65259 7.5631 7.16224 7.93359 6.84668C8.58701 6.29045 9.00187 5.46016 9.00195 4.53027C9.00195 2.90394 7.73594 1.58497 6.15527 1.50391L6.00098 1.5ZM7.04492 4C7.45914 4 7.79492 4.33579 7.79492 4.75C7.79492 5.16421 7.45914 5.5 7.04492 5.5H6.75195L6.75 6.25195C6.74893 6.66599 6.41213 7.00087 5.99805 7C5.58408 6.99884 5.24913 6.66208 5.25 6.24805L5.25098 5.5H4.96094C4.54679 5.49992 4.21094 5.16416 4.21094 4.75C4.21094 4.33584 4.54679 4.00008 4.96094 4H7.04492Z"
    fill="currentColor"
  />
</svg>
