<svg width="20" height="20" viewBox="0 0 20 20" fill="none" xmlns="http://www.w3.org/2000/svg" data-fui-icon="true">
  <path
    d="M13 17.4961C13.4141 17.4961 13.7498 17.832 13.75 18.2461C13.75 18.6603 13.4142 18.9961 13 18.9961H7C6.58579 18.9961 6.25 18.6603 6.25 18.2461C6.25016 17.832 6.58589 17.4961 7 17.4961H13ZM10 1C13.7279 1 16.75 4.02208 16.75 7.75C16.7499 9.69019 15.9296 11.4393 14.6201 12.6689C14.2205 13.0444 14.0001 13.4753 14 13.8809V14C13.9998 15.1044 13.1045 16 12 16H8C6.89573 15.9998 6.00015 15.1043 6 14V13.8809C5.99992 13.4752 5.77978 13.0445 5.37988 12.6689C4.07047 11.4393 3.25008 9.69014 3.25 7.75C3.25 4.02223 6.27229 1.00024 10 1ZM10 2.5C7.10071 2.50024 4.75 4.85066 4.75 7.75C4.75008 9.25832 5.38587 10.6169 6.40625 11.5752C6.99607 12.1291 7.49992 12.9288 7.5 13.8809V14C7.50015 14.2759 7.72416 14.4998 8 14.5H12C12.276 14.5 12.4998 14.276 12.5 14V13.8809C12.5001 12.929 13.0041 12.129 13.5938 11.5752C14.6142 10.6169 15.2499 9.25836 15.25 7.75C15.25 4.85051 12.8995 2.5 10 2.5ZM11.6533 8C12.0673 8.00026 12.4033 8.33595 12.4033 8.75C12.4033 9.16405 12.0673 9.49974 11.6533 9.5H10.7529V11.75C10.7529 12.1642 10.4171 12.5 10.0029 12.5C9.58883 12.4999 9.25293 12.1641 9.25293 11.75V9.5H8.35352C7.9393 9.5 7.60352 9.16421 7.60352 8.75C7.60352 8.33579 7.9393 8 8.35352 8H11.6533Z"
    fill="currentColor"
  />
</svg>
