<svg width="12" height="12" viewBox="0 0 12 12" fill="none" xmlns="http://www.w3.org/2000/svg" data-fui-icon="true">
  <path
    d="M7.5 10.5C7.91419 10.5 8.24997 10.8358 8.25 11.25C8.25 11.6642 7.91421 12 7.5 12H4.5C4.08579 12 3.75 11.6642 3.75 11.25C3.75003 10.8358 4.08581 10.5 4.5 10.5H7.5ZM6.00098 0C8.49209 4.82208e-05 10.502 2.03391 10.502 4.53027C10.5019 5.91673 9.88117 7.15827 8.90625 7.98828C8.78139 8.09458 8.75 8.19683 8.75 8.25C8.74997 9.0784 8.07841 9.75 7.25 9.75H4.75C3.92159 9.75 3.25003 9.0784 3.25 8.25C3.25 8.19607 3.21828 8.09337 3.09277 7.98633C2.11934 7.15625 1.50009 5.91541 1.5 4.53027C1.5 2.03389 3.5098 0 6.00098 0Z"
    fill="currentColor"
  />
</svg>
