<svg width="24" height="24" viewBox="0 0 24 24" fill="none" xmlns="http://www.w3.org/2000/svg" data-fui-icon="true">
  <path
    d="M15.75 21.502C16.164 21.5022 16.4999 21.8379 16.5 22.252C16.5 22.666 16.164 23.0017 15.75 23.002H8.25C7.83579 23.002 7.5 22.6662 7.5 22.252C7.50006 21.8378 7.83582 21.502 8.25 21.502H15.75ZM12 1C16.6944 1 20.4999 4.80566 20.5 9.5C20.5 11.8736 19.5251 14.0199 17.957 15.5605C17.3641 16.1431 17 16.8226 17 17.5C16.9999 18.8807 15.8807 20 14.5 20H9.5C8.11933 20 7.00007 18.8807 7 17.5C7 16.8226 6.63593 16.1431 6.04297 15.5605C4.47488 14.0199 3.50003 11.8736 3.5 9.5C3.50007 4.80566 7.30561 1 12 1ZM9.75 10C9.33579 10 9 10.3358 9 10.75C9 11.1642 9.33579 11.5 9.75 11.5H11.2549V14.75C11.2549 15.1641 11.5909 15.4998 12.0049 15.5C12.4191 15.5 12.7549 15.1642 12.7549 14.75V11.5H14.25C14.6642 11.5 15 11.1642 15 10.75C15 10.3358 14.6642 10 14.25 10H9.75Z"
    fill="currentColor"
  />
</svg>
