<svg width="24" height="24" viewBox="0 0 24 24" fill="none" xmlns="http://www.w3.org/2000/svg" data-fui-icon="true">
  <path
    d="M15.75 21.502C16.164 21.5022 16.4999 21.8379 16.5 22.252C16.5 22.666 16.164 23.0017 15.75 23.002H8.25C7.83579 23.002 7.5 22.6662 7.5 22.252C7.50006 21.8378 7.83582 21.502 8.25 21.502H15.75ZM12 1C16.6944 1 20.4999 4.80566 20.5 9.5C20.5 11.8736 19.5251 14.0199 17.957 15.5605C17.3641 16.1431 17 16.8226 17 17.5C16.9999 18.8807 15.8807 20 14.5 20H9.5C8.11938 19.9999 7.00006 18.8806 7 17.5C7 16.8226 6.63597 16.1431 6.04297 15.5605C4.47488 14.0199 3.50003 11.8736 3.5 9.5C3.50007 4.8057 7.30566 1.00006 12 1ZM12 2.5C8.13412 2.50006 5.00007 5.63409 5 9.5C5.00003 11.4547 5.80146 13.2207 7.09473 14.4912C7.85556 15.2388 8.5 16.2795 8.5 17.5C8.50006 18.0522 8.94781 18.4999 9.5 18.5H14.5C15.0522 18.5 15.4999 18.0522 15.5 17.5C15.5 16.2796 16.1445 15.2388 16.9053 14.4912C18.1985 13.2207 19 11.4547 19 9.5C18.9999 5.63405 15.8659 2.5 12 2.5Z"
    fill="currentColor"
  />
</svg>
