<svg width="12" height="12" viewBox="0 0 12 12" fill="none" xmlns="http://www.w3.org/2000/svg" data-fui-icon="true">
  <path
    d="M7.5 10.5C7.91419 10.5 8.24997 10.8358 8.25 11.25C8.25 11.6642 7.91421 12 7.5 12H4.5C4.08579 12 3.75 11.6642 3.75 11.25C3.75003 10.8358 4.08581 10.5 4.5 10.5H7.5ZM6.00098 0C8.49209 4.82208e-05 10.502 2.03391 10.502 4.53027C10.5019 5.91673 9.88117 7.15827 8.90625 7.98828C8.78139 8.09458 8.75 8.19683 8.75 8.25C8.74997 9.0784 8.07841 9.75 7.25 9.75H4.75C3.92159 9.75 3.25003 9.0784 3.25 8.25C3.25 8.19607 3.21828 8.09337 3.09277 7.98633C2.11934 7.15625 1.50009 5.91541 1.5 4.53027C1.5 2.03389 3.5098 0 6.00098 0ZM4.96094 4C4.54672 4 4.21094 4.33579 4.21094 4.75C4.21094 5.16421 4.54672 5.5 4.96094 5.5H5.25098L5.25 6.24805C5.24913 6.66213 5.58401 6.99893 5.99805 7C6.41213 7.00087 6.74893 6.66599 6.75 6.25195L6.75195 5.5H7.04492C7.45914 5.5 7.79492 5.16421 7.79492 4.75C7.79492 4.33579 7.45914 4 7.04492 4H4.96094Z"
    fill="currentColor"
  />
</svg>
