<svg width="20" height="20" viewBox="0 0 20 20" fill="none" xmlns="http://www.w3.org/2000/svg" data-fui-icon="true">
  <path
    d="M11.3486 0.00976562C11.6686 0.0478389 11.9648 0.197152 12.1855 0.430664L12.2891 0.553711L12.6221 1H13.751C14.6821 1.00042 15.4396 1.72792 15.4941 2.64453C16.9427 3.07304 18 4.41248 18 6V16.25C18 18.3211 16.3211 20 14.25 20H5.75C3.67893 20 2 18.3211 2 16.25V6C2 4.41281 3.05678 3.07333 4.50488 2.64453C4.50367 2.66496 4.50296 2.68548 4.50195 2.70605C4.52528 1.76062 5.29709 1.00043 6.24902 1H7.37793L7.71094 0.553711L7.81445 0.430664C8.07196 0.158203 8.43264 0.000153567 8.81348 0H11.1865L11.3486 0.00976562ZM6.71875 14.5C6.30454 14.5 5.96875 14.8358 5.96875 15.25C5.96875 15.6642 6.30454 16 6.71875 16H10.2812C10.6955 16 11.0312 15.6642 11.0312 15.25C11.0312 14.8358 10.6955 14.5 10.2812 14.5H6.71875ZM6.71875 11C6.30454 11 5.96875 11.3358 5.96875 11.75C5.96875 12.1642 6.30454 12.5 6.71875 12.5H13.2812C13.6955 12.5 14.0312 12.1642 14.0312 11.75C14.0312 11.3358 13.6955 11 13.2812 11H6.71875ZM6.71875 7.5C6.30454 7.5 5.96875 7.83579 5.96875 8.25C5.96875 8.66421 6.30454 9 6.71875 9H13.2812C13.6955 9 14.0312 8.66421 14.0312 8.25C14.0312 7.83579 13.6955 7.5 13.2812 7.5H6.71875ZM8.35645 2.19824C8.2149 2.38813 7.99172 2.5 7.75488 2.5H6.24902C6.11167 2.50024 6 2.61157 6 2.75V3.75C6 3.88807 6.11193 4 6.25 4H13.75C13.8881 4 14 3.88807 14 3.75V2.75C14 2.62875 13.9144 2.52811 13.8008 2.50488L13.751 2.5H12.2451C12.0083 2.5 11.7851 2.38813 11.6436 2.19824L11.123 1.5H8.87695L8.35645 2.19824Z"
    fill="currentColor"
  />
</svg>
