<svg width="16" height="16" viewBox="0 0 16 16" fill="none" xmlns="http://www.w3.org/2000/svg" data-fui-icon="true">
  <path
    d="M6.5 0.865626C7.42811 0.329866 8.57189 0.329866 9.5 0.865626L13.4277 3.13418C14.3559 3.67004 14.9277 4.66013 14.9277 5.73184V10.268C14.9277 11.3398 14.3559 12.3297 13.4277 12.8656L9.5 15.1342C8.57184 15.67 7.42816 15.67 6.5 15.1342L2.57227 12.8656C1.64406 12.3297 1.07227 11.3398 1.07227 10.268V5.73184C1.07235 4.66013 1.64413 3.67004 2.57227 3.13418L6.5 0.865626ZM12.1514 5.62832C11.9459 5.26872 11.4876 5.1436 11.1279 5.34902L8 7.13613L4.87207 5.34902C4.51245 5.1436 4.05412 5.26872 3.84863 5.62832C3.64343 5.9879 3.76842 6.44632 4.12793 6.65176L7.25 8.43496V12.0004C7.25019 12.4144 7.58591 12.7504 8 12.7504C8.41409 12.7504 8.74981 12.4144 8.75 12.0004V8.43496L11.8721 6.65176C12.2316 6.44632 12.3566 5.9879 12.1514 5.62832Z"
    fill="currentColor"
  />
</svg>
