<svg width="32" height="32" viewBox="0 0 32 32" fill="none" xmlns="http://www.w3.org/2000/svg" data-fui-icon="true">
  <path
    d="M12.999 1.73228C14.8554 0.660528 17.1426 0.660528 18.999 1.73228L26.8555 6.26744C28.7118 7.33918 29.8553 9.32027 29.8555 11.4637V20.536L29.8418 20.9354C29.7094 22.9233 28.5959 24.7274 26.8555 25.7323L18.999 30.2674C17.1426 31.3392 14.8554 31.3392 12.999 30.2674L5.14258 25.7323C3.40218 24.7274 2.28864 22.9233 2.15625 20.9354L2.14258 20.536V11.4637C2.1427 9.32027 3.28627 7.33918 5.14258 6.26744L12.999 1.73228ZM18.249 3.03111C16.8567 2.22731 15.1413 2.22731 13.749 3.03111L5.89258 7.56724C4.50049 8.37106 3.6427 9.85625 3.64258 11.4637V20.536C3.64266 22.1435 4.50049 23.6286 5.89258 24.4325L13.749 28.9686C15.1413 29.7725 16.8567 29.7725 18.249 28.9686L26.1055 24.4325C27.4976 23.6286 28.3554 22.1435 28.3555 20.536V11.4637C28.3553 9.85625 27.4976 8.37106 26.1055 7.56724L18.249 3.03111ZM23.502 10.8485C23.8615 10.6431 24.3199 10.7683 24.5254 11.1278C24.7308 11.4874 24.6057 11.9457 24.2461 12.1512L16.749 16.4344V24.9999C16.749 25.4141 16.4132 25.7499 15.999 25.7499C15.5848 25.7499 15.249 25.4141 15.249 24.9999V16.4344L7.75195 12.1512C7.39239 11.9457 7.26724 11.4874 7.47266 11.1278C7.67816 10.7683 8.13651 10.6431 8.49609 10.8485L15.999 15.1356L23.502 10.8485Z"
    fill="currentColor"
  />
</svg>
