<svg width="12" height="12" viewBox="0 0 12 12" fill="none" xmlns="http://www.w3.org/2000/svg" data-fui-icon="true">
  <path
    d="M4.99902 0.577764C5.61783 0.220498 6.38022 0.220498 6.99902 0.577764L10.1953 2.42249C10.8141 2.77976 11.1953 3.44039 11.1953 4.15491V7.84534C11.1953 8.55986 10.8141 9.2205 10.1953 9.57776L6.99902 11.4225C6.38022 11.7798 5.61783 11.7798 4.99902 11.4225L1.80273 9.57776C1.18394 9.2205 0.802748 8.55986 0.802734 7.84534V4.15491C0.802734 3.44039 1.18395 2.77976 1.80273 2.42249L4.99902 0.577764ZM9.05469 4.25355C8.78063 3.77429 8.16983 3.60764 7.69043 3.88147L5.99902 4.84729L4.30762 3.88147C3.82822 3.60764 3.21742 3.77429 2.94336 4.25355C2.66938 4.73301 2.83603 5.34375 3.31543 5.6178L4.99902 6.57972V8.49964C4.99902 9.05192 5.44674 9.49964 5.99902 9.49964C6.55131 9.49964 6.99902 9.05192 6.99902 8.49964V6.57972L8.68262 5.6178C9.16201 5.34375 9.32867 4.73301 9.05469 4.25355Z"
    fill="currentColor"
  />
</svg>
