<svg width="20" height="20" viewBox="0 0 20 20" fill="none" xmlns="http://www.w3.org/2000/svg" data-fui-icon="true">
  <path
    d="M8 1.15467C9.23761 0.440142 10.7624 0.440142 12 1.15467L16.6602 3.8451C17.8977 4.5596 18.6601 5.87999 18.6602 7.30897V12.6908C18.66 14.1197 17.8976 15.4402 16.6602 16.1547L12 18.8451C10.7624 19.5596 9.2376 19.5596 8 18.8451L3.33984 16.1547C2.10236 15.4402 1.33999 14.1197 1.33984 12.6908V7.30897C1.33992 5.87999 2.1023 4.5596 3.33984 3.8451L8 1.15467ZM15.0264 7.12733C14.8208 6.76799 14.3624 6.64279 14.0029 6.84803L10 9.13514L5.99707 6.84803C5.63756 6.64279 5.17917 6.76799 4.97363 7.12733C4.76824 7.4869 4.89345 7.94524 5.25293 8.15077L9.25 10.434V14.9994C9.25 15.4136 9.58579 15.7494 10 15.7494C10.4142 15.7494 10.75 15.4136 10.75 14.9994V10.434L14.7471 8.15077C15.1066 7.94524 15.2318 7.4869 15.0264 7.12733Z"
    fill="currentColor"
  />
</svg>
