<svg width="20" height="20" viewBox="0 0 20 20" fill="none" xmlns="http://www.w3.org/2000/svg" data-fui-icon="true">
  <path
    d="M8 1.15439C9.23752 0.439992 10.7625 0.439992 12 1.15439L16.6602 3.8458C17.8977 4.56035 18.6602 5.88066 18.6602 7.30966V12.6905C18.6601 14.1195 17.8977 15.4399 16.6602 16.1544L12 18.8458L11.7646 18.9708C10.6523 19.5178 9.34769 19.5178 8.23535 18.9708L8 18.8458L3.33984 16.1544C2.17964 15.4845 1.43692 14.2823 1.34863 12.9571L1.33984 12.6905V7.30966C1.33984 5.96996 2.00984 4.72549 3.11328 3.98642L3.33984 3.8458L8 1.15439ZM11 2.88681C10.3812 2.52956 9.61879 2.52956 9 2.88681L4.33984 5.57724C3.72107 5.93451 3.33984 6.59515 3.33984 7.30966V12.6905C3.33988 13.405 3.72107 14.0657 4.33984 14.4229L9 17.1134C9.61877 17.4706 10.3812 17.4706 11 17.1134L15.6602 14.4229C16.2789 14.0657 16.6601 13.405 16.6602 12.6905V7.30966C16.6602 6.59515 16.2789 5.93451 15.6602 5.57724L11 2.88681ZM13.8789 6.63193C14.3584 6.35792 14.9692 6.52448 15.2432 7.004C15.5171 7.4835 15.3506 8.09426 14.8711 8.36826L11 10.5802V15.0001C10.9999 15.5523 10.5522 16.0001 10 16.0001C9.44775 16.0001 9.00006 15.5523 9 15.0001V10.5802L5.12891 8.36826C4.64942 8.09426 4.48289 7.4835 4.75684 7.004C5.03085 6.52448 5.64158 6.35792 6.12109 6.63193L10 8.84775L13.8789 6.63193Z"
    fill="currentColor"
  />
</svg>
