<svg width="20" height="20" viewBox="0 0 20 20" fill="none" xmlns="http://www.w3.org/2000/svg" data-fui-icon="true">
  <path
    d="M8 1.15467C9.23761 0.440142 10.7624 0.440142 12 1.15467L16.6602 3.8451C17.8977 4.5596 18.6601 5.87999 18.6602 7.30897V12.6908C18.66 14.1197 17.8976 15.4402 16.6602 16.1547L12 18.8451C10.7624 19.5596 9.2376 19.5596 8 18.8451L3.33984 16.1547C2.10236 15.4402 1.33999 14.1197 1.33984 12.6908V7.30897C1.33992 5.87999 2.1023 4.5596 3.33984 3.8451L8 1.15467ZM15.2432 7.00331C14.9691 6.52405 14.3583 6.3574 13.8789 6.63124L10 8.84706L6.12109 6.63124C5.64169 6.3574 5.03089 6.52405 4.75684 7.00331C4.48286 7.48277 4.64951 8.09351 5.12891 8.36756L9 10.5795V14.9994C9 15.5517 9.44771 15.9994 10 15.9994C10.5523 15.9994 11 15.5517 11 14.9994V10.5795L14.8711 8.36756C15.3505 8.09351 15.5171 7.48277 15.2432 7.00331Z"
    fill="currentColor"
  />
</svg>
