<svg width="32" height="32" viewBox="0 0 32 32" fill="none" xmlns="http://www.w3.org/2000/svg" data-fui-icon="true">
  <path
    d="M12.999 1.73231C14.8554 0.660518 17.1426 0.660518 18.999 1.73231L26.8555 6.26845C28.7116 7.34022 29.8553 9.32039 29.8555 11.4638V20.536C29.8554 22.6796 28.7118 24.6605 26.8555 25.7323L18.999 30.2684C17.1427 31.3401 14.8553 31.3401 12.999 30.2684L5.14258 25.7323C3.2862 24.6605 2.14262 22.6796 2.14258 20.536V11.4638C2.1427 9.32039 3.28642 7.34022 5.14258 6.26845L12.999 1.73231ZM25.6172 10.5038C25.3432 10.0244 24.7324 9.85778 24.2529 10.1317L15.999 14.8475L7.74512 10.1317C7.26564 9.85778 6.65488 10.0244 6.38086 10.5038C6.10686 10.9833 6.27345 11.594 6.75293 11.8681L14.999 16.58V25.9999C14.999 26.5522 15.4467 26.9999 15.999 26.9999C16.5513 26.9999 16.999 26.5522 16.999 25.9999V16.58L25.2451 11.8681C25.7246 11.594 25.8912 10.9833 25.6172 10.5038Z"
    fill="currentColor"
  />
</svg>
