<svg width="12" height="12" viewBox="0 0 12 12" fill="none" xmlns="http://www.w3.org/2000/svg" data-fui-icon="true">
  <path
    d="M4.99902 0.576844C5.61771 0.219747 6.38033 0.219747 6.99902 0.576844L10.1953 2.42255C10.8138 2.77972 11.1951 3.43981 11.1953 4.15399V7.8454L11.1904 7.97821C11.1463 8.64071 10.7753 9.24186 10.1953 9.57684L6.99902 11.4225L6.88184 11.485C6.32544 11.7588 5.67261 11.7588 5.11621 11.485L4.99902 11.4225L1.80273 9.57684C1.22278 9.24186 0.851742 8.64071 0.807617 7.97821L0.802734 7.8454V4.15399C0.802971 3.48446 1.13799 2.86227 1.68945 2.49286L1.80273 2.42255L4.99902 0.576844ZM6.24902 1.87567C6.09448 1.78659 5.90357 1.78659 5.74902 1.87567L2.55273 3.72137C2.3983 3.81059 2.30299 3.97567 2.30273 4.15399V7.8454C2.30288 8.02379 2.39829 8.18874 2.55273 8.27802L5.74902 10.1237C5.90363 10.2129 6.09441 10.2129 6.24902 10.1237L9.44531 8.27802C9.59976 8.18873 9.69517 8.02379 9.69531 7.8454V4.15399C9.69506 3.97567 9.59975 3.81059 9.44531 3.72137L6.24902 1.87567ZM7.81445 4.09833C8.17398 3.89305 8.63236 4.01824 8.83789 4.37762C9.04329 4.7372 8.9181 5.19554 8.55859 5.40106L6.74902 6.43427V8.49969C6.74902 8.91391 6.41324 9.24969 5.99902 9.24969C5.58481 9.24969 5.24902 8.91391 5.24902 8.49969V6.43427L3.43945 5.40106C3.07995 5.19554 2.95476 4.7372 3.16016 4.37762C3.36568 4.01824 3.82407 3.89305 4.18359 4.09833L5.99902 5.13544L7.81445 4.09833Z"
    fill="currentColor"
  />
</svg>
