<svg width="20" height="20" viewBox="0 0 20 20" fill="none" xmlns="http://www.w3.org/2000/svg" data-fui-icon="true">
  <path
    d="M8 1.15439C9.23752 0.439992 10.7625 0.439992 12 1.15439L16.6602 3.8458C17.8977 4.56035 18.6602 5.88066 18.6602 7.30966V12.6905C18.6601 14.1195 17.8977 15.4399 16.6602 16.1544L12 18.8458L11.7646 18.9708C10.6523 19.5178 9.34769 19.5178 8.23535 18.9708L8 18.8458L3.33984 16.1544C2.17964 15.4845 1.43692 14.2823 1.34863 12.9571L1.33984 12.6905V7.30966C1.33984 5.96996 2.00984 4.72549 3.11328 3.98642L3.33984 3.8458L8 1.15439ZM11.25 2.45419C10.4765 2.00761 9.5235 2.00761 8.75 2.45419L4.08984 5.14462C3.31637 5.59121 2.83984 6.41652 2.83984 7.30966V12.6905C2.83988 13.5836 3.31638 14.409 4.08984 14.8556L8.75 17.546C9.52348 17.9925 10.4765 17.9925 11.25 17.546L15.9102 14.8556C16.6836 14.409 17.1601 13.5836 17.1602 12.6905V7.30966C17.1602 6.41652 16.6836 5.59121 15.9102 5.14462L11.25 2.45419ZM14.0029 6.84872C14.3626 6.6433 14.8209 6.76842 15.0264 7.12802C15.2317 7.48763 15.1066 7.94599 14.7471 8.15146L10.75 10.4347V15.0001C10.7499 15.4143 10.4142 15.7501 10 15.7501C9.58582 15.7501 9.25006 15.4143 9.25 15.0001V10.4347L5.25293 8.15146C4.89335 7.94599 4.76827 7.48763 4.97363 7.12802C5.17912 6.76842 5.63745 6.6433 5.99707 6.84872L10 9.13583L14.0029 6.84872Z"
    fill="currentColor"
  />
</svg>
