<svg width="32" height="32" viewBox="0 0 32 32" fill="none" xmlns="http://www.w3.org/2000/svg" data-fui-icon="true">
  <path
    d="M12.999 1.73228C14.8554 0.660528 17.1426 0.660528 18.999 1.73228L26.8555 6.26744C28.7118 7.33918 29.8553 9.32027 29.8555 11.4637V20.536L29.8418 20.9354C29.7094 22.9233 28.5959 24.7274 26.8555 25.7323L18.999 30.2674C17.1426 31.3392 14.8554 31.3392 12.999 30.2674L5.14258 25.7323C3.40218 24.7274 2.28864 22.9233 2.15625 20.9354L2.14258 20.536V11.4637C2.1427 9.32027 3.28627 7.33918 5.14258 6.26744L12.999 1.73228ZM17.999 3.46373C16.7615 2.74932 15.2365 2.74932 13.999 3.46373L6.14258 7.99986C4.90509 8.71434 4.1427 10.0348 4.14258 11.4637V20.536C4.14266 21.9649 4.90509 23.2854 6.14258 23.9999L13.999 28.536C15.2366 29.2504 16.7615 29.2504 17.999 28.536L25.8555 23.9999C27.093 23.2854 27.8554 21.9649 27.8555 20.536V11.4637C27.8553 10.0348 27.093 8.71434 25.8555 7.99986L17.999 3.46373ZM23.3779 10.6317C23.8574 10.3577 24.4682 10.5243 24.7422 11.0038C25.0162 11.4833 24.8496 12.094 24.3701 12.368L16.999 16.5799V24.9999C16.999 25.5521 16.5513 25.9999 15.999 25.9999C15.4467 25.9999 14.999 25.5521 14.999 24.9999V16.5799L7.62793 12.368C7.14845 12.094 6.98186 11.4833 7.25586 11.0038C7.52988 10.5243 8.14064 10.3577 8.62012 10.6317L15.999 14.8475L23.3779 10.6317Z"
    fill="currentColor"
  />
</svg>
