<svg width="12" height="12" viewBox="0 0 12 12" fill="none" xmlns="http://www.w3.org/2000/svg" data-fui-icon="true">
  <path
    d="M0.5 6.98707C0.500018 8.40004 1.22792 9.65835 2.24023 10.5437C3.25305 11.4294 4.61253 11.9998 6 11.9998C7.38747 11.9998 8.74695 11.4294 9.75977 10.5437C10.7721 9.65835 11.5 8.40004 11.5 6.98707C11.5 5.54246 10.9663 3.93044 9.81738 2.74391L9.75586 2.68629C9.4412 2.4167 9.02982 2.4487 8.76172 2.61598C8.48729 2.78734 8.28457 3.14172 8.38184 3.54469C8.51875 4.11108 8.4128 4.54033 8.25293 4.84352C7.89348 4.30634 7.64893 3.79992 7.56152 3.32497C7.45166 2.72748 7.57365 2.12237 8.20996 1.47243C8.66259 1.01011 8.46547 0.0942383 7.67676 0.0290667C5.03504 -0.188635 3.47718 1.65297 3.25586 3.40602C3.15581 4.19859 3.2276 4.75391 3.23438 5.03297C3.23777 5.17325 3.22777 5.23612 3.21289 5.28297C3.19864 5.32785 3.16395 5.40711 3.0498 5.54372C3.01578 5.58443 2.98564 5.61308 2.96191 5.63454C2.93924 5.59922 2.9108 5.54873 2.88281 5.47731C2.82061 5.31849 2.76853 5.09215 2.75293 4.79957L2.73438 4.65993C2.66576 4.34512 2.42805 4.10415 2.13281 4.02223C1.82244 3.93621 1.46788 4.0345 1.25098 4.31032L1.16699 4.4402L1.06641 4.63649C0.819846 5.14621 0.5 5.99541 0.5 6.98707Z"
    fill="currentColor"
  />
</svg>
