<svg width="24" height="24" viewBox="0 0 24 24" fill="none" xmlns="http://www.w3.org/2000/svg" data-fui-icon="true">
  <path
    d="M2.5 14.1151C2.5 12.6043 2.98681 11.1525 3.42773 10.1493C3.84974 10.9097 4.3466 11.6069 4.84375 12.1112C5.17284 12.445 5.5607 12.756 5.97852 12.9022C6.19613 12.9784 6.45715 13.0216 6.7334 12.9657C7.02207 12.9073 7.26617 12.7526 7.44922 12.5351C7.78582 12.135 7.89263 11.6859 7.90137 11.2509C7.90937 10.8491 7.83271 10.4062 7.7627 9.99405C7.61733 9.13826 7.43837 8.09583 7.61914 6.67373C7.78946 5.33414 8.44171 3.94774 9.66602 2.95303C10.7665 2.05894 12.3836 1.43941 14.6533 1.50674C14.0155 2.64283 13.6838 3.66138 13.5898 4.6083C13.4781 5.73545 13.7056 6.69902 14.0508 7.5585C14.3823 8.38392 14.857 9.18161 15.2119 9.86319C15.5844 10.5785 15.8686 11.2382 15.9648 11.9521C16.0081 12.2733 16.2261 12.5344 16.5186 12.6396C16.8232 12.749 17.188 12.6786 17.4297 12.4062C17.9022 11.8729 19.0183 10.3158 18.9922 7.63076C20.5514 9.59907 21.5 12.0112 21.5 14.1151C21.4999 16.307 20.3546 18.3979 18.5547 19.9608C16.7553 21.5232 14.364 22.4999 12 22.4999C9.63604 22.4999 7.24471 21.5232 5.44531 19.9608C3.64539 18.3979 2.50007 16.307 2.5 14.1151ZM1 14.1151C1.00007 16.8419 2.41726 19.319 4.46094 21.0937C6.50526 22.8689 9.2391 23.9999 12 23.9999C14.7609 23.9999 17.4947 22.8689 19.5391 21.0937C21.5827 19.319 22.9999 16.8419 23 14.1151C23 11.1725 21.4783 7.90617 19.1807 5.57901L19.1104 5.51358C18.748 5.2053 18.2764 5.21603 17.9395 5.4042C17.5909 5.59896 17.3354 6.00637 17.4033 6.48623C17.6407 8.16266 17.3703 9.39094 17.0293 10.2118C16.882 9.84586 16.7133 9.4999 16.542 9.1708C16.1297 8.3789 15.7376 7.73495 15.4424 6.9999C15.1609 6.29899 15.0012 5.58206 15.083 4.75674C15.1654 3.92564 15.4986 2.92476 16.2988 1.67276C16.6932 1.05561 16.3555 0.129583 15.5166 0.0545921L14.9668 0.0165062C12.2603 -0.118288 10.1896 0.594743 8.71973 1.78897C7.16146 3.05514 6.34388 4.80924 6.13086 6.48428C5.92042 8.13975 6.13511 9.36744 6.28418 10.245C6.36134 10.6993 6.40695 10.9896 6.40234 11.2206C6.40046 11.315 6.38936 11.3833 6.37305 11.4364C6.26452 11.3736 6.10705 11.2563 5.91113 11.0575C5.38932 10.528 4.80404 9.64902 4.37109 8.69424L4.30273 8.56729C3.94183 8.00393 3.05363 7.84498 2.59375 8.47256L2.50195 8.61905L2.29199 9.03213C1.76206 10.1187 1 12.0363 1 14.1151Z"
    fill="currentColor"
  />
</svg>
