<svg width="12" height="12" viewBox="0 0 12 12" fill="none" xmlns="http://www.w3.org/2000/svg" data-fui-icon="true">
  <path
    d="M2.00781 6.81325C2.04039 6.84263 2.0734 6.87156 2.1084 6.89821C2.42073 7.13589 2.81923 7.2445 3.2373 7.14723C3.62887 7.05607 3.94941 6.80565 4.2002 6.50563C4.40493 6.26062 4.55405 6.01256 4.6416 5.73707C4.7285 5.46348 4.73864 5.21154 4.7334 4.99586C4.72285 4.56286 4.66292 4.23694 4.74414 3.59352C4.84006 2.83486 5.35043 2.02242 6.28223 1.68043C6.02087 2.30406 5.96719 2.94924 6.08594 3.59547C6.2755 4.62645 6.88691 5.58836 7.5498 6.42164C7.81319 6.75227 8.32718 6.86917 8.7207 6.56715C8.92414 6.41102 9.39576 5.99297 9.69141 5.31227C9.89763 5.86123 10 6.43845 10 6.98707C9.99998 7.86936 9.54021 8.74259 8.77148 9.41481C8.00308 10.0866 6.9874 10.4998 6 10.4998C5.0126 10.4998 3.99692 10.0866 3.22852 9.41481C2.45979 8.74259 2.00002 7.86936 2 6.98707C2 6.92856 2.00467 6.87066 2.00781 6.81325ZM0.5 6.98707C0.500018 8.40004 1.22792 9.65835 2.24023 10.5437C3.25305 11.4294 4.61253 11.9998 6 11.9998C7.38747 11.9998 8.74695 11.4294 9.75977 10.5437C10.7721 9.65835 11.5 8.40004 11.5 6.98707C11.5 5.54246 10.9663 3.93044 9.81738 2.74391L9.75586 2.68629C9.4412 2.4167 9.02982 2.4487 8.76172 2.61598C8.48729 2.78734 8.28457 3.14172 8.38184 3.54469C8.51875 4.11108 8.4128 4.54033 8.25293 4.84352C7.89348 4.30634 7.64893 3.79992 7.56152 3.32497C7.45166 2.72748 7.57365 2.12237 8.20996 1.47243C8.66259 1.01011 8.46547 0.0942384 7.67676 0.0290667C5.03504 -0.188635 3.47718 1.65297 3.25586 3.40602C3.15581 4.19859 3.2276 4.75391 3.23438 5.03297C3.23777 5.17325 3.22777 5.23612 3.21289 5.28297C3.19864 5.32785 3.16395 5.40711 3.0498 5.54372C3.01578 5.58443 2.98564 5.61308 2.96191 5.63454C2.93924 5.59922 2.9108 5.54873 2.88281 5.47731C2.82061 5.31849 2.76853 5.09215 2.75293 4.79957L2.73438 4.65993C2.66576 4.34512 2.42805 4.10415 2.13281 4.02223C1.82245 3.93621 1.46788 4.0345 1.25098 4.31032L1.16699 4.4402L1.06641 4.63649C0.819845 5.14621 0.5 5.99541 0.5 6.98707Z"
    fill="currentColor"
  />
</svg>
