<svg width="24" height="24" viewBox="0 0 24 24" fill="none" xmlns="http://www.w3.org/2000/svg" data-fui-icon="true">
  <path
    d="M1 14.1151C1.00007 16.8419 2.41726 19.319 4.46094 21.0937C6.50526 22.8689 9.2391 23.9999 12 23.9999C14.7609 23.9999 17.4947 22.8689 19.5391 21.0937C21.5827 19.319 22.9999 16.8419 23 14.1151C23 11.1725 21.4783 7.90617 19.1807 5.57901L19.1104 5.51358C18.748 5.2053 18.2764 5.21603 17.9395 5.4042C17.5909 5.59896 17.3354 6.00637 17.4033 6.48623C17.6407 8.16266 17.3703 9.39094 17.0293 10.2118C16.882 9.84586 16.7133 9.4999 16.542 9.1708C16.1297 8.3789 15.7376 7.73495 15.4424 6.9999C15.1609 6.29899 15.0012 5.58206 15.083 4.75674C15.1654 3.92564 15.4986 2.92476 16.2988 1.67276C16.6932 1.0556 16.3555 0.129583 15.5166 0.0545921L14.9668 0.0165062C12.2603 -0.118288 10.1896 0.594743 8.71973 1.78897C7.16145 3.05514 6.34388 4.80924 6.13086 6.48428C5.92042 8.13975 6.13511 9.36744 6.28418 10.245C6.36134 10.6993 6.40695 10.9896 6.40234 11.2206C6.40046 11.315 6.38936 11.3833 6.37305 11.4364C6.26452 11.3736 6.10705 11.2563 5.91113 11.0575C5.38932 10.528 4.80404 9.64902 4.37109 8.69424L4.30273 8.56729C3.94183 8.00392 3.05363 7.84498 2.59375 8.47256L2.50195 8.61905L2.29199 9.03213C1.76206 10.1187 1 12.0363 1 14.1151Z"
    fill="currentColor"
  />
</svg>
