<svg width="32" height="32" viewBox="0 0 32 32" fill="none" xmlns="http://www.w3.org/2000/svg" data-fui-icon="true">
  <path
    d="M2 18.6787C2 22.0674 3.79822 25.1545 6.4043 27.3721C9.01179 29.5908 12.4936 31 16 31C19.5064 31 22.9882 29.5908 25.5957 27.3721C28.2018 25.1545 30 22.0674 30 18.6787C29.9999 14.8861 27.9276 10.6431 24.8174 7.70899L24.6787 7.59669C24.3419 7.37093 23.9336 7.3832 23.625 7.54493C23.2793 7.72621 23.0232 8.11123 23.0635 8.57423C23.3025 11.3207 22.8806 13.099 22.4346 14.165C22.223 13.5852 21.9594 13.0423 21.6865 12.5274C21.1562 11.5266 20.6333 10.6854 20.2432 9.73243C19.8679 8.8157 19.6525 7.86726 19.7705 6.77052C19.8893 5.66688 20.3525 4.3501 21.4355 2.71583C21.8456 2.09686 21.5049 1.16082 20.666 1.08106L19.957 1.02735C16.4648 0.830447 13.8141 1.71167 11.9404 3.18751C9.95005 4.75536 8.9026 6.94286 8.63086 9.03712C8.36256 11.1053 8.6359 12.6373 8.82812 13.7461C8.92699 14.3164 8.98978 14.7029 8.9834 15.0166C8.97812 15.2752 8.92349 15.4241 8.82715 15.5479C8.81295 15.5446 8.79386 15.5416 8.77051 15.5332C8.58414 15.466 8.29154 15.2708 7.92578 14.8994C7.21064 14.1732 6.42859 12.9937 5.86914 11.7412C5.56941 11.0705 4.5965 10.8518 4.09961 11.5029L4.00684 11.6445L3.74316 12.1397C3.06264 13.4672 2.00008 15.9672 2 18.6787Z"
    fill="currentColor"
  />
</svg>
