<svg width="16" height="16" viewBox="0 0 16 16" fill="none" xmlns="http://www.w3.org/2000/svg" data-fui-icon="true">
  <path
    d="M7.99952 1.18506C8.48651 1.18506 8.97293 1.38476 9.31788 1.78369C9.38305 1.85903 9.44349 1.94119 9.49757 2.03076L15.7261 12.3462C15.77 12.419 15.8082 12.493 15.8403 12.5679C16.323 13.6922 15.505 15.0002 14.228 15.0005H1.77101L1.64503 14.9956C0.648619 14.927 -0.0360565 14.0535 0.0219824 13.1382C0.0243902 13.1002 0.0277254 13.062 0.0327246 13.0239C0.0578473 12.8326 0.116257 12.6408 0.211436 12.4556C0.230335 12.4188 0.251111 12.3824 0.272959 12.3462L6.50147 2.03076C6.56531 1.92503 6.63727 1.82857 6.71632 1.74268C6.84793 1.59966 6.99851 1.48404 7.16065 1.396C7.22566 1.3607 7.29257 1.32969 7.36085 1.30322C7.49709 1.25043 7.63904 1.21537 7.78272 1.19775C7.85465 1.18893 7.92712 1.18507 7.99952 1.18506ZM7.99952 5.50049C9.38023 5.50049 10.4995 6.61978 10.4995 8.00049C10.4993 9.38105 9.38012 10.5005 7.99952 10.5005C6.61903 10.5004 5.4997 9.38097 5.49952 8.00049C5.49952 6.61986 6.61892 5.50062 7.99952 5.50049C7.23245 5.50054 6.54497 5.64233 5.93604 5.86768L3.0503 10.6479C3.89739 11.6121 5.54197 13.0003 7.99952 13.0005C10.4566 13.0005 12.1004 11.6122 12.9478 10.6479L10.062 5.86768C9.53505 5.67281 8.94953 5.53925 8.30421 5.50732L7.99952 5.50049ZM7.99952 7.00049C7.44735 7.00062 6.99952 7.44828 6.99952 8.00049C6.9997 8.55254 7.44746 9.00036 7.99952 9.00049C8.5517 9.00049 8.99934 8.55262 8.99952 8.00049C8.99952 7.4482 8.55181 7.00049 7.99952 7.00049Z"
    fill="currentColor"
  />
</svg>
