<svg width="12" height="12" viewBox="0 0 12 12" fill="none" xmlns="http://www.w3.org/2000/svg" data-fui-icon="true">
  <path
    d="M5.99903 0.658203C6.07109 0.658178 6.14324 0.662182 6.21485 0.670899C6.28607 0.679578 6.3569 0.692631 6.42676 0.709961C6.56666 0.744641 6.70303 0.796849 6.83203 0.866211C6.96106 0.935613 7.08251 1.02285 7.19336 1.12695C7.22104 1.15293 7.24816 1.17987 7.27442 1.20801C7.32709 1.26447 7.37656 1.32546 7.42285 1.39063C7.446 1.42319 7.46886 1.45647 7.49024 1.49121L11.7012 8.33301C11.7236 8.36943 11.7443 8.40634 11.7637 8.44336C11.795 8.50321 11.822 8.56397 11.8457 8.625C11.8954 8.75294 11.9293 8.88278 11.9473 9.0127C11.9525 9.05079 11.9563 9.08893 11.959 9.12695C11.9777 9.39504 11.9321 9.65988 11.834 9.90234C11.806 9.97139 11.7736 10.0386 11.7373 10.1035C11.6644 10.234 11.5753 10.3553 11.4717 10.4639C11.3684 10.5721 11.2509 10.6677 11.1211 10.7471C10.9261 10.8663 10.7036 10.9495 10.46 10.9834C10.4192 10.9891 10.3778 10.9932 10.3359 10.9961C10.2945 10.9989 10.2525 11 10.21 11H1.78907C1.53268 10.9999 1.29451 10.9479 1.08203 10.8545C0.514992 10.6054 0.128565 10.0667 0.0507844 9.46875C0.041036 9.39402 0.035988 9.31833 0.036136 9.24219C0.0363136 9.16601 0.0421523 9.08939 0.0527375 9.0127C0.0685622 8.8977 0.096094 8.7826 0.136722 8.66895C0.150392 8.63075 0.165044 8.5925 0.181644 8.55469C0.214484 8.4798 0.253153 8.40573 0.297855 8.33301L4.50879 1.49121C4.85037 0.93614 5.42489 0.658343 5.99903 0.658203ZM6 4C6.82833 4.00011 7.49999 4.67165 7.5 5.5C7.5 6.32836 6.82834 6.99989 6 7C5.17158 7 4.5 6.32843 4.5 5.5C4.50001 4.67158 5.17158 4 6 4C5.4634 4.00006 4.98039 4.1093 4.55567 4.27637L2.7168 7.26465C3.22537 7.82971 4.36247 8.84942 6 8.84961C7.63684 8.84941 8.77429 7.83075 9.28321 7.26562L7.44434 4.2793C7.06671 4.13079 6.64413 4.02505 6.17774 4.00391L6 4Z"
    fill="currentColor"
  />
</svg>
