<svg width="24" height="24" viewBox="0 0 24 24" fill="none" xmlns="http://www.w3.org/2000/svg" data-fui-icon="true">
  <path
    d="M11.9998 1.41504C12.0895 1.41504 12.1793 1.42078 12.2683 1.43262C12.3866 1.44839 12.5036 1.47505 12.6179 1.51172C13.0585 1.65292 13.4576 1.94963 13.7234 2.40137L23.5378 19.0859C24.3217 20.4191 23.3609 22.1006 21.8142 22.1006H2.18531C1.9548 22.1006 1.73752 22.0621 1.53687 21.9941C1.51041 21.9852 1.48461 21.9748 1.45875 21.9648C1.4122 21.9468 1.36657 21.9275 1.32203 21.9062C1.18504 21.8409 1.05722 21.7617 0.941167 21.6689C0.874498 21.6156 0.811671 21.5581 0.752691 21.4971C0.162496 20.8873 -0.0294135 19.9182 0.460698 19.085L10.2752 2.40039C10.662 1.74318 11.331 1.41478 11.9998 1.41504ZM12.199 8.00488C14.1771 8.10878 15.7488 9.74599 15.7488 11.75C15.7488 13.8211 14.0698 15.5 11.9988 15.5C9.92785 15.4999 8.2488 13.821 8.24878 11.75C8.24878 9.74618 9.82072 8.10906 11.7986 8.00488C10.3574 8.04173 9.12232 8.47146 8.09546 9.06543L4.69507 14.8467C5.69874 16.2715 8.12033 18.9999 11.9988 19C15.8786 18.9999 18.2996 16.2691 19.3025 14.8447L15.9041 9.06738C14.8767 8.47276 13.6412 8.0417 12.199 8.00488ZM11.9988 9.5C10.7563 9.50015 9.74878 10.5075 9.74878 11.75C9.7488 12.9925 10.7563 13.9999 11.9988 14C13.2414 14 14.2488 12.9926 14.2488 11.75C14.2488 10.5074 13.2414 9.5 11.9988 9.5Z"
    fill="currentColor"
  />
</svg>
