<svg width="12" height="12" viewBox="0 0 12 12" fill="none" xmlns="http://www.w3.org/2000/svg" data-fui-icon="true">
  <path
    d="M5.75 9.25C6.16421 9.25 6.5 9.58579 6.5 10C6.5 10.4142 6.16421 10.75 5.75 10.75H0.75C0.335786 10.75 0 10.4142 0 10C0 9.58579 0.335786 9.25 0.75 9.25H5.75ZM10.7197 2.46973C11.0126 2.17683 11.4874 2.17683 11.7803 2.46973C12.0732 2.76262 12.0732 3.23738 11.7803 3.53027L9.31055 6L11.7803 8.46973C12.0732 8.76262 12.0732 9.23738 11.7803 9.53027C11.4874 9.82317 11.0126 9.82317 10.7197 9.53027L7.71973 6.53027C7.42683 6.23738 7.42683 5.76262 7.71973 5.46973L10.7197 2.46973ZM5.75 5.25C6.16421 5.25 6.5 5.58579 6.5 6C6.5 6.41421 6.16421 6.75 5.75 6.75H0.75C0.335786 6.75 0 6.41421 0 6C0 5.58579 0.335786 5.25 0.75 5.25H5.75ZM5.75 1.25C6.16421 1.25 6.5 1.58579 6.5 2C6.5 2.41421 6.16421 2.75 5.75 2.75H0.75C0.335786 2.75 0 2.41421 0 2C0 1.58579 0.335786 1.25 0.75 1.25H5.75Z"
    fill="currentColor"
  />
</svg>
