<svg width="12" height="12" viewBox="0 0 12 12" fill="none" xmlns="http://www.w3.org/2000/svg" data-fui-icon="true">
  <path
    d="M3.971 4.79993C5.75169 4.79994 7.19626 6.24349 7.19659 8.02454C7.19659 9.80565 5.75211 11.2501 3.971 11.2501C3.57044 11.2501 3.18995 11.1734 2.84014 11.0411C2.39461 11.1433 1.9537 11.2613 1.71905 11.3273L1.7171 11.3282C1.07089 11.5082 0.491451 10.9086 0.669245 10.2765C0.735146 10.0422 0.851137 9.59881 0.953425 9.15149C0.822171 8.80215 0.746394 8.4229 0.746394 8.02454C0.746726 6.24388 2.19021 4.80014 3.971 4.79993ZM3.971 6.29993C3.01867 6.30009 2.24665 7.07211 2.24639 8.02454C2.24639 8.28672 2.30748 8.53597 2.41534 8.76282C2.48651 8.91249 2.507 9.0826 2.47198 9.24622C2.44643 9.36546 2.41783 9.48589 2.38995 9.60461C2.50889 9.57661 2.62981 9.54916 2.74932 9.52356C2.91298 9.48853 3.08304 9.50901 3.23272 9.5802C3.46053 9.68864 3.70957 9.75008 3.971 9.75012C4.92368 9.75011 5.69659 8.97722 5.69659 8.02454C5.69633 7.07229 4.92374 6.29994 3.971 6.29993ZM7.34991 0.750122C9.50372 0.750231 11.2503 2.49668 11.2503 4.65051C11.2502 5.15516 11.1502 5.63452 10.9769 6.07336C11.039 6.34802 11.105 6.62346 11.1683 6.87024L11.3694 7.61829C11.5508 8.25989 10.9582 8.84866 10.3196 8.66907H10.3187C10.0257 8.58622 9.40054 8.41675 8.77667 8.27551C8.67323 8.31642 8.56691 8.35152 8.45928 8.38391C8.46864 8.26542 8.47589 8.14544 8.47589 8.02454C8.47585 7.61476 8.41936 7.21821 8.31671 6.84094L8.38018 6.81555L8.49542 6.77161C8.57448 6.74879 8.65701 6.73855 8.73956 6.74231L8.86358 6.75891C9.12447 6.81483 9.39072 6.87775 9.64093 6.93958C9.57906 6.68888 9.51429 6.42254 9.45831 6.16125C9.42328 5.99766 9.44376 5.82757 9.51495 5.67786C9.64613 5.40215 9.72808 5.10191 9.74639 4.78625L9.7503 4.65051C9.75029 3.3251 8.6753 2.25023 7.34991 2.25012L7.10479 2.26282C6.23064 2.35163 5.49651 2.91022 5.15557 3.68176C4.77959 3.57988 4.38411 3.52455 3.97589 3.52454C3.85295 3.52454 3.7311 3.53049 3.61065 3.54016C4.08868 1.92722 5.58168 0.75025 7.34991 0.750122Z"
    fill="currentColor"
  />
</svg>
