<svg width="16" height="16" viewBox="0 0 16 16" fill="none" xmlns="http://www.w3.org/2000/svg" data-fui-icon="true">
  <path
    d="M8 0C12.4183 0 16 3.58172 16 8C16 12.4183 12.4183 16 8 16C7.19254 16 6.41195 15.8799 5.67578 15.6562C4.83881 15.4019 4.11444 15.2707 3.46875 15.4434C3.07888 15.5476 2.70298 15.6613 2.35742 15.7734C1.69368 15.9886 1.05773 15.7335 0.662109 15.3379C0.266511 14.9423 0.0113204 14.3063 0.226562 13.6426C0.338703 13.2969 0.452525 12.9207 0.556641 12.5303C0.728836 11.8845 0.597691 11.1608 0.34375 10.3242C0.120282 9.58805 0 8.80729 0 8C0 3.58177 3.58182 9.74091e-05 8 0ZM8 1.5C4.41022 1.50009 1.5 4.41022 1.5 8C1.5 8.65767 1.59823 9.29109 1.7793 9.8877C2.04417 10.7603 2.29377 11.8359 2.00586 12.916C1.89388 13.336 1.77333 13.7385 1.6543 14.1055C1.64683 14.1285 1.64164 14.1963 1.72266 14.2773C1.80366 14.3583 1.87135 14.3532 1.89453 14.3457C2.26073 14.2269 2.66265 14.1063 3.08203 13.9941C4.16265 13.7053 5.23846 13.9555 6.11133 14.2207C6.70814 14.402 7.34209 14.5 8 14.5C11.5899 14.5 14.5 11.5899 14.5 8C14.5 4.41015 11.5899 1.5 8 1.5ZM7.18066 4.69238C7.56327 4.10223 8.43673 4.10223 8.81934 4.69238L8.89355 4.82812L9.50586 6.17188L10.8994 6.36426C11.7596 6.48322 12.0015 7.51653 11.4551 8.05957L10.415 9.09277L10.6777 10.5791C10.8085 11.319 10.0292 12.0768 9.22852 11.6221L8 10.9238L6.77148 11.6221C5.97085 12.0767 5.19146 11.3191 5.32227 10.5791L5.58398 9.09277L4.54492 8.05957C3.99851 7.51652 4.24044 6.48321 5.10059 6.36426L6.49316 6.17188L7.10645 4.82812L7.18066 4.69238ZM7.74316 7.0498C7.60754 7.34708 7.32711 7.57059 6.98242 7.61816L6.31934 7.70898L6.82812 8.21387C7.0646 8.44896 7.16251 8.7827 7.10645 9.09961L6.98633 9.77344L7.51855 9.47266L7.63379 9.41699C7.86877 9.32158 8.13123 9.32158 8.36621 9.41699L8.48145 9.47266L9.0127 9.77344L8.89355 9.09961C8.83748 8.78267 8.93546 8.44893 9.17188 8.21387L9.67969 7.70898L9.01758 7.61816C8.67276 7.57057 8.39242 7.34694 8.25684 7.0498L8 6.48535L7.74316 7.0498Z"
    fill="currentColor"
  />
</svg>
