<svg width="24" height="24" viewBox="0 0 24 24" fill="none" xmlns="http://www.w3.org/2000/svg" data-fui-icon="true">
  <path
    d="M12.0001 19.8583C11.9998 20.9477 10.7031 21.5152 9.90244 20.7763L1.58798 13.1024C0.944626 12.5085 0.944634 11.4913 1.58798 10.8974L9.90244 3.22353L10.0577 3.0995C10.8599 2.55713 11.9998 3.12022 12.0001 4.1415V7.51161C16.5797 7.65106 19.3899 9.08239 21.0216 11.3681C22.6989 13.7179 23.0001 16.8059 23.0001 19.7499C23.0001 20.0623 22.8063 20.3421 22.5138 20.452C22.2214 20.5618 21.8914 20.479 21.6856 20.244C20.0735 18.4016 18.4259 17.4804 16.7315 17.0077C15.231 16.5891 13.6734 16.5142 12.0001 16.5018V19.8583Z"
    fill="currentColor"
  />
</svg>
