<svg width="20" height="20" viewBox="0 0 20 20" fill="none" xmlns="http://www.w3.org/2000/svg" data-fui-icon="true">
  <path
    d="M9.99988 16.5254C9.99988 17.6834 8.60014 18.2637 7.78113 17.4453L1.46668 11.1319C0.841837 10.507 0.841837 9.49302 1.46668 8.86819L7.78015 2.55471L7.85925 2.48244C8.68594 1.77309 9.99988 2.35268 9.99988 3.47463V6.03225C13.3011 6.22844 15.5699 7.40722 17.0087 9.26174C18.5501 11.2487 18.9999 13.8347 18.9999 16.2862C18.9997 16.7026 18.7413 17.0752 18.3514 17.2217C17.9615 17.3682 17.5213 17.2579 17.247 16.9444C15.0724 14.4592 12.6931 14.0661 9.99988 14.0098V16.5254Z"
    fill="currentColor"
  />
</svg>
