<svg width="12" height="12" viewBox="0 0 12 12" fill="none" xmlns="http://www.w3.org/2000/svg" data-fui-icon="true">
  <path
    d="M7.00007 10.0508C7.00007 11.0897 5.76937 11.6382 4.99714 10.9434L0.661203 7.04104C0.0432722 6.4849 0.0432693 5.51515 0.661203 4.95901L4.99714 1.05666L5.14753 0.94143C5.919 0.433035 7.00007 0.975343 7.00007 1.94924V3.05178C8.94129 3.25446 10.2541 4.06566 11.0411 5.35354C11.8879 6.73927 12.0001 8.49618 12.0001 10C12.0001 10.4166 11.7416 10.79 11.3516 10.9365C10.9617 11.0829 10.5214 10.9717 10.2471 10.6582C9.45457 9.75251 8.8499 9.38162 8.28913 9.20217C7.9058 9.07951 7.50519 9.03081 7.00007 9.01174V10.0508Z"
    fill="currentColor"
  />
</svg>
