<svg width="12" height="12" viewBox="0 0 12 12" fill="none" xmlns="http://www.w3.org/2000/svg" data-fui-icon="true">
  <path
    d="M6.49983 10.0507C6.49983 10.8732 5.52524 11.3069 4.91389 10.7567L0.578933 6.85439C0.0713464 6.39757 0.0713443 5.60224 0.578933 5.14541L4.91389 1.24307C5.52524 0.692856 6.49983 1.12664 6.49983 1.94912V3.27432C8.72183 3.41472 10.1552 4.19336 10.9989 5.45889C11.8859 6.7895 11.9998 8.49892 11.9998 9.9999C11.9998 10.3124 11.806 10.5922 11.5135 10.7021C11.2211 10.8119 10.8911 10.729 10.6854 10.494C9.90237 9.59917 9.15241 9.1817 8.39436 8.97256C7.80584 8.81021 7.19388 8.7658 6.49983 8.75381V10.0507Z"
    fill="currentColor"
  />
</svg>
