<svg width="20" height="20" viewBox="0 0 20 20" fill="none" xmlns="http://www.w3.org/2000/svg" data-fui-icon="true">
  <path
    fill-rule="evenodd"
    clip-rule="evenodd"
    d="M6 4.11513C6 1.61058 8.27565 -0.278068 10.7373 0.183493L16.7373 1.30849C18.6291 1.6633 20 3.31534 20 5.24013V14.7597C20 16.6845 18.6291 18.3365 16.7373 18.6913L10.7373 19.8163C8.27565 20.2779 6 18.3892 6 15.8847V13.9999C6 13.4476 6.44772 12.9999 7 12.9999C7.55228 12.9999 8 13.4476 8 13.9999V15.8847C8 17.1368 9.13746 18.081 10.3682 17.8505L16.3682 16.7255C17.3141 16.5481 18 15.7221 18 14.7597V5.24013C18 4.2777 17.3141 3.45168 16.3682 3.27431L10.3682 2.14931C9.13746 1.91876 8 2.86297 8 4.11513V6.2499C8 6.80218 7.55228 7.2499 7 7.2499C6.44772 7.2499 6 6.80218 6 6.2499V4.11513ZM10.293 6.79287C10.6835 6.40234 11.3165 6.40234 11.707 6.79287L14.207 9.29287C14.5975 9.6834 14.5975 10.3164 14.207 10.7069L11.707 13.2069C11.3165 13.5974 10.6835 13.5974 10.293 13.2069C9.90246 12.8164 9.90249 12.1834 10.293 11.7929L11.0859 10.9999H3.25C2.73292 10.9999 2.43533 11.1661 2.26953 11.3319C2.09436 11.5071 2 11.7473 2 11.9999C2.00003 12.2524 2.09442 12.4926 2.26953 12.6679C2.43539 12.8338 2.73312 13.0009 3.25 13.0009C3.80228 13.0009 4.25 13.4486 4.25 14.0009C4.24968 14.5529 3.80209 15.0009 3.25 15.0009C2.26696 15.0009 1.43962 14.6662 0.855469 14.0819C0.280791 13.5071 2.55566e-05 12.7472 0 11.9999C0 11.2526 0.280708 10.4927 0.855469 9.91787C1.43967 9.33366 2.26708 8.9999 3.25 8.9999H11.0859L10.293 8.20693C9.90246 7.81642 9.90249 7.1834 10.293 6.79287Z"
    fill="currentColor"
  />
</svg>
