<svg width="32" height="32" viewBox="0 0 32 32" fill="none" xmlns="http://www.w3.org/2000/svg" data-fui-icon="true">
  <path
    fill-rule="evenodd"
    clip-rule="evenodd"
    d="M10 7.67336C10.0002 3.85789 13.5149 1.01211 17.2471 1.80519L27.2471 3.93019C30.0181 4.51905 31.9998 6.96546 32 9.79836V22.2007C31.9999 25.0336 30.0181 27.48 27.2471 28.0689L17.2471 30.1939C13.5148 30.987 10.0002 28.1412 10 24.3257V19.9995C10 19.4473 10.4477 18.9995 11 18.9995C11.5523 18.9995 12 19.4473 12 19.9995V24.3257C12.0002 26.8692 14.3431 28.7663 16.8311 28.2378L26.8311 26.1128C28.6784 25.7202 29.9999 24.0893 30 22.2007V9.79836C29.9998 7.90981 28.6784 6.2788 26.8311 5.88625L16.8311 3.76125C14.3431 3.23277 12.0002 5.12989 12 7.67336V12.2495C12 12.8018 11.5523 13.2495 11 13.2495C10.4477 13.2495 10 12.8018 10 12.2495V7.67336ZM18.293 10.7925C18.6835 10.402 19.3165 10.402 19.707 10.7925L24.207 15.2925C24.5975 15.683 24.5975 16.316 24.207 16.7066L19.707 21.2066C19.3165 21.597 18.6835 21.597 18.293 21.2066C17.9025 20.816 17.9025 20.183 18.293 19.7925L21.0859 16.9995H3.25C2.73292 16.9995 2.43533 17.1658 2.26953 17.3316C2.09435 17.5068 2 17.7469 2 17.9995C2.00002 18.2521 2.09441 18.4922 2.26953 18.6675C2.43539 18.8334 2.73311 19.0005 3.25 19.0005C3.80228 19.0005 4.25 19.4482 4.25 20.0005C4.24969 20.5525 3.80209 21.0005 3.25 21.0005C2.26696 21.0005 1.43962 20.6659 0.855469 20.0816C0.280786 19.5067 2.10404e-05 18.7468 0 17.9995C0 17.2522 0.280701 16.4923 0.855469 15.9175C1.43967 15.3333 2.26708 14.9995 3.25 14.9995H21.0859L18.293 12.2066C17.9025 11.816 17.9025 11.183 18.293 10.7925Z"
    fill="currentColor"
  />
</svg>
