<svg width="32" height="32" viewBox="0 0 32 32" fill="none" xmlns="http://www.w3.org/2000/svg" data-fui-icon="true">
  <path
    fill-rule="evenodd"
    clip-rule="evenodd"
    d="M11.4999 30.9998C5.70094 30.9998 0.999924 26.2987 0.999924 20.4998C1.00005 14.7009 5.70101 9.99976 11.4999 9.99976H26.7587L19.9247 3.13159C19.4381 2.6423 19.4396 1.85091 19.9286 1.36401C20.4178 0.877197 21.2092 0.879025 21.6962 1.36792L30.6357 10.3503C31.1208 10.838 31.1208 11.6264 30.6357 12.114L21.6962 21.0964C21.2092 21.5855 20.4179 21.5872 19.9286 21.1003C19.4396 20.6133 19.4379 19.822 19.9247 19.3328L26.7236 12.4998H11.4999C7.08172 12.4998 3.50005 16.0816 3.49992 20.4998C3.49992 24.918 7.08165 28.4998 11.4999 28.4998H15.415C16.105 28.5 16.6648 29.0597 16.665 29.7498C16.665 30.44 16.1051 30.9995 15.415 30.9998H11.4999Z"
    fill="currentColor"
  />
</svg>
