<svg width="20" height="20" viewBox="0 0 20 20" fill="none" xmlns="http://www.w3.org/2000/svg" data-fui-icon="true">
  <path
    d="M10.0005 0C10.4143 0.000439489 10.7505 0.336058 10.7505 0.75V3H16.0005C16.2957 3.00032 16.5642 3.17394 16.685 3.44336L19.7602 10.3027C19.9102 10.6374 20.0258 11.0615 19.9682 11.5215C19.9519 11.652 19.9284 11.7782 19.9008 11.9004C19.8998 11.9052 19.9 11.9102 19.8989 11.915C19.8838 11.9798 19.8661 12.0431 19.8481 12.1055C19.7854 12.3245 19.7043 12.5289 19.6079 12.7197C19.6001 12.7351 19.5924 12.7504 19.5844 12.7656C19.5678 12.7974 19.5502 12.8284 19.5327 12.8594C19.5209 12.8802 19.5097 12.9014 19.4975 12.9219C19.4778 12.9551 19.4567 12.9873 19.436 13.0195C19.427 13.0336 19.4179 13.0476 19.4087 13.0615C19.3902 13.0893 19.3712 13.1165 19.352 13.1436C19.3345 13.1684 19.3174 13.1935 19.2993 13.2178C19.2858 13.2358 19.2721 13.2537 19.2583 13.2715C19.236 13.3001 19.2129 13.3278 19.1899 13.3555C19.1766 13.3715 19.1635 13.3876 19.1499 13.4033C19.0563 13.5118 18.9558 13.6121 18.851 13.707C18.7925 13.7599 18.734 13.8126 18.6723 13.8613C18.6501 13.879 18.6266 13.895 18.604 13.9121C18.5534 13.9502 18.502 13.987 18.4497 14.0225C18.4085 14.0504 18.3668 14.0773 18.3247 14.1035C18.2902 14.125 18.2553 14.1456 18.2202 14.166C18.1426 14.2111 18.0632 14.2523 17.9829 14.292C17.9622 14.3022 17.9421 14.3134 17.9214 14.3232C17.8491 14.3574 17.7756 14.388 17.7016 14.418C17.668 14.4316 17.6349 14.4462 17.601 14.459C17.5243 14.4878 17.4467 14.5136 17.3686 14.5381C17.3451 14.5455 17.3219 14.5536 17.2983 14.5605C17.22 14.5837 17.1412 14.6043 17.062 14.623C17.0301 14.6306 16.9983 14.6386 16.9663 14.6455C16.8945 14.6609 16.8225 14.6737 16.7505 14.6855C16.7142 14.6916 16.6783 14.699 16.6421 14.7041C16.5803 14.7128 16.5183 14.7175 16.4565 14.7236C16.4082 14.7285 16.3602 14.735 16.312 14.7383C16.2077 14.7454 16.1038 14.75 16.0005 14.75L15.6919 14.7393C15.6905 14.7392 15.6893 14.7384 15.688 14.7383C15.6355 14.7347 15.5833 14.7281 15.5307 14.7227C15.4738 14.7168 15.4167 14.7121 15.3598 14.7041C15.3183 14.6983 15.2772 14.6896 15.2358 14.6826C15.169 14.6714 15.1021 14.6607 15.0356 14.6465C14.9963 14.6381 14.9575 14.6276 14.9184 14.6182C14.8501 14.6016 14.782 14.5842 14.7143 14.5645C14.6796 14.5543 14.6453 14.5432 14.6108 14.5322C14.5376 14.5089 14.465 14.4842 14.393 14.457C14.3612 14.445 14.3299 14.4317 14.2983 14.4189C14.2272 14.3901 14.1568 14.3598 14.0874 14.3271C14.0598 14.3142 14.0326 14.3007 14.0053 14.2871C13.9319 14.2505 13.8597 14.212 13.7885 14.1709C13.7425 14.1443 13.6968 14.1173 13.6518 14.0889C13.626 14.0725 13.6002 14.0561 13.5747 14.0391C13.5065 13.9937 13.4396 13.9464 13.3745 13.8965C13.3621 13.887 13.3496 13.8778 13.3374 13.8682C13.264 13.8105 13.1935 13.7491 13.1245 13.6855C13.1124 13.6744 13.0993 13.6646 13.0874 13.6533C13.0815 13.6478 13.0756 13.6423 13.0698 13.6367L12.9878 13.5547C12.9804 13.5471 12.9736 13.5389 12.9663 13.5312C12.9469 13.511 12.9276 13.4905 12.9087 13.4697C12.8938 13.4534 12.8793 13.4366 12.8647 13.4199C12.8387 13.3903 12.8126 13.3607 12.7876 13.3301C12.7776 13.3179 12.7681 13.3053 12.7583 13.293C12.4918 12.9571 12.2817 12.5616 12.1508 12.1035C12.1377 12.058 12.1263 12.0116 12.1147 11.9648C12.08 11.8227 12.0519 11.6751 12.0327 11.5215C11.975 11.0613 12.0906 10.6374 12.2407 10.3027L14.8422 4.5H10.7505V16H13.5835C14.918 16.0002 16.0005 17.0824 16.0005 18.417C16.0003 19.291 15.2914 19.9996 14.4174 20H5.58346C4.70927 19.9998 4.00063 19.2912 4.00045 18.417C4.00045 17.0823 5.08276 16 6.41744 16H9.25045V4.5H5.15866L7.76022 10.3027C7.91017 10.6374 8.02583 11.0615 7.96823 11.5215C7.95188 11.652 7.92844 11.7782 7.90084 11.9004C7.89978 11.9052 7.9 11.9102 7.89889 11.915C7.88382 11.9798 7.86611 12.0431 7.84811 12.1055C7.78538 12.3245 7.70431 12.5289 7.60787 12.7197C7.60011 12.7351 7.5924 12.7504 7.58444 12.7656C7.56778 12.7974 7.5502 12.8284 7.53268 12.8594C7.52088 12.8802 7.50969 12.9014 7.49752 12.9219C7.47778 12.9551 7.45672 12.9873 7.436 13.0195C7.42697 13.0336 7.41787 13.0476 7.40866 13.0615C7.39022 13.0893 7.37116 13.1165 7.35201 13.1436C7.33447 13.1684 7.3174 13.1935 7.29928 13.2178C7.28575 13.2358 7.27211 13.2537 7.25826 13.2715C7.23602 13.3001 7.21293 13.3278 7.18991 13.3555C7.17657 13.3715 7.16346 13.3876 7.14987 13.4033C7.05631 13.5118 6.9558 13.6121 6.85104 13.707C6.79251 13.7599 6.73396 13.8126 6.67233 13.8613C6.65006 13.879 6.62661 13.895 6.60397 13.9121C6.55341 13.9502 6.502 13.987 6.44967 14.0225C6.40852 14.0504 6.36683 14.0773 6.32467 14.1035C6.29019 14.125 6.25529 14.1456 6.22018 14.166C6.14259 14.2111 6.0632 14.2523 5.98287 14.292C5.96224 14.3022 5.94214 14.3134 5.92135 14.3232C5.84915 14.3574 5.77557 14.388 5.70162 14.418C5.66805 14.4316 5.63493 14.4462 5.60104 14.459C5.5243 14.4878 5.4467 14.5136 5.36862 14.5381C5.34512 14.5455 5.3219 14.5536 5.2983 14.5605C5.21999 14.5837 5.14119 14.6043 5.06198 14.623C5.03006 14.6306 4.99829 14.6386 4.96627 14.6455C4.89455 14.6609 4.82253 14.6737 4.75045 14.6855C4.71424 14.6916 4.67831 14.699 4.64205 14.7041C4.5803 14.7128 4.51826 14.7175 4.45651 14.7236C4.4082 14.7285 4.36019 14.735 4.31198 14.7383C4.20768 14.7454 4.10376 14.75 4.00045 14.75L3.69186 14.7393C3.69054 14.7392 3.68927 14.7384 3.68795 14.7383C3.63552 14.7347 3.58326 14.7281 3.53073 14.7227C3.47383 14.7168 3.41672 14.7121 3.35983 14.7041C3.31833 14.6983 3.27724 14.6896 3.2358 14.6826C3.16903 14.6714 3.10207 14.6607 3.03561 14.6465C2.99634 14.6381 2.95752 14.6276 2.91842 14.6182C2.85009 14.6016 2.78198 14.5842 2.71432 14.5645C2.67964 14.5543 2.64526 14.5432 2.6108 14.5322C2.53765 14.5089 2.46498 14.4842 2.39303 14.457C2.36119 14.445 2.32986 14.4317 2.2983 14.4189C2.22722 14.3901 2.15684 14.3598 2.08737 14.3271C2.05983 14.3142 2.03259 14.3007 2.00533 14.2871C1.93192 14.2505 1.85966 14.212 1.78854 14.1709C1.74249 14.1443 1.69678 14.1173 1.65182 14.0889C1.62595 14.0725 1.60016 14.0561 1.57467 14.0391C1.50654 13.9937 1.43964 13.9464 1.37448 13.8965C1.36213 13.887 1.3496 13.8778 1.33737 13.8682C1.26398 13.8105 1.19347 13.7491 1.12448 13.6855C1.11245 13.6744 1.09925 13.6646 1.08737 13.6533C1.08152 13.6478 1.0756 13.6423 1.06979 13.6367L0.987757 13.5547C0.980375 13.5471 0.973592 13.5389 0.966273 13.5312C0.946865 13.511 0.92761 13.4905 0.908655 13.4697C0.893782 13.4534 0.8793 13.4366 0.86471 13.4199C0.838746 13.3903 0.812592 13.3607 0.787562 13.3301C0.777622 13.3179 0.768055 13.3053 0.758265 13.293C0.491815 12.9571 0.281743 12.5616 0.150843 12.1035C0.137737 12.058 0.126261 12.0116 0.11471 11.9648C0.0799832 11.8227 0.0519258 11.6751 0.0326788 11.5215C-0.0249745 11.0613 0.0906457 10.6374 0.240687 10.3027L3.31588 3.44336L3.36862 3.34668C3.50498 3.1332 3.74216 3.00003 4.00045 3H9.25045V0.75C9.25045 0.335786 9.58624 0 10.0005 0ZM13.9087 10.25H18.0922L16.0005 5.58301L13.9087 10.25ZM1.90866 10.25H6.09225L4.00045 5.58301L1.90866 10.25Z"
    fill="currentColor"
  />
</svg>
