<svg width="12" height="13" viewBox="0 0 12 13" fill="none" xmlns="http://www.w3.org/2000/svg" data-fui-icon="true">
  <path
    d="M5.42285 0.0909206C5.79966 -0.0253954 6.20328 -0.0254528 6.58008 0.0909206L6.76562 0.158303L9.90527 1.4874C10.6306 1.79445 11.1016 2.5064 11.1016 3.29405V6.71006C11.1015 8.38766 9.9246 9.64882 8.94238 10.4278C7.91752 11.2405 6.8256 11.7513 6.49512 11.8976C6.17957 12.037 5.82234 12.0372 5.50684 11.8976C5.17568 11.751 4.08495 11.2402 3.06055 10.4278C2.07828 9.64884 0.900498 8.38778 0.900391 6.71006V3.29405C0.900391 2.50659 1.37164 1.79457 2.09668 1.4874L5.23633 0.158303L5.42285 0.0909206ZM2.90039 3.31846V6.71006C2.9005 7.42474 3.42923 8.16868 4.30273 8.86143C4.92349 9.35371 5.59118 9.71766 6.00098 9.92002C6.41061 9.71778 7.07837 9.35368 7.69922 8.86143C8.57279 8.16865 9.10145 7.42478 9.10156 6.71006V3.31846L6.00098 2.00596L2.90039 3.31846ZM6.79297 4.29307C7.18351 3.90276 7.81658 3.90263 8.20703 4.29307C8.59729 4.68354 8.59728 5.31666 8.20703 5.70713L6.20703 7.70713C6.01959 7.89458 5.76508 8 5.5 8.0001C5.23477 8.00009 4.97952 7.89469 4.79199 7.70713L3.89258 6.80674C3.50218 6.41618 3.50206 5.78314 3.89258 5.39268C4.28307 5.00235 4.91616 5.00236 5.30664 5.39268L5.5 5.58604L6.79297 4.29307Z"
    fill="currentColor"
  />
</svg>
