<svg width="16" height="16" viewBox="0 0 16 16" fill="none" xmlns="http://www.w3.org/2000/svg" data-fui-icon="true">
  <path
    d="M7.38672 1.12698C7.82761 0.95913 8.31542 0.961313 8.75488 1.13283L12.791 2.70998C13.5203 2.99494 14.0008 3.69852 14.001 4.48147V8.87893C14.0008 10.6939 12.6648 12.1405 11.4609 13.0967C10.2172 14.0845 8.88633 14.7285 8.49121 14.9102C8.22431 15.0329 7.92174 15.0356 7.65234 14.9151C7.25127 14.7355 5.88724 14.0928 4.61133 13.1065C3.37899 12.1538 2.00022 10.7046 2 8.87893V4.4883C2.00025 3.69955 2.48754 2.99276 3.22461 2.71194L7.38672 1.12698ZM8.20898 2.5303C8.11639 2.49427 8.01379 2.49404 7.9209 2.52932L3.75879 4.1133C3.60325 4.17252 3.50025 4.32192 3.5 4.4883V8.87893C3.50023 9.94939 4.3464 11.0062 5.52832 11.9199C6.50513 12.6751 7.55802 13.2113 8.06348 13.4502C8.55753 13.2102 9.58032 12.6758 10.5283 11.9229C11.6736 11.0133 12.5008 9.9567 12.501 8.87893V4.48147C12.5008 4.31626 12.399 4.16758 12.2451 4.10744L8.20898 2.5303ZM8.00684 3.79983C8.42095 3.79985 8.75671 4.13574 8.75684 4.54983V4.66897C9.13827 4.73167 9.45344 4.84634 9.7168 5.00588C10.1435 5.26447 10.3515 5.59719 10.4648 5.77932C10.6836 6.13093 10.5762 6.59363 10.2246 6.81252C9.87306 7.0309 9.41019 6.92368 9.19141 6.57229C9.10163 6.42806 9.04811 6.35395 8.93945 6.28811C8.82303 6.2177 8.56456 6.11335 8.00586 6.1133C7.0053 6.11341 6.93209 6.61478 6.93164 6.58205C6.93169 6.67576 6.95179 6.70579 6.95605 6.71194C6.96442 6.72409 6.99416 6.76008 7.08691 6.80666C7.30661 6.9168 7.63796 6.97951 8.12891 7.06155C8.5495 7.13182 9.1308 7.22165 9.59473 7.45412C9.84325 7.57871 10.0989 7.76275 10.29 8.04104C10.4858 8.32622 10.578 8.65933 10.5781 9.01955C10.5779 9.91881 9.84851 10.6698 8.75684 10.9082V11.0508C8.75673 11.4649 8.42096 11.8008 8.00684 11.8008C7.59288 11.8006 7.25694 11.4648 7.25684 11.0508V10.9326C6.87343 10.87 6.55573 10.7566 6.29102 10.5977C5.86266 10.3404 5.65188 10.0098 5.53516 9.82229C5.31656 9.47079 5.42413 9.00802 5.77539 8.78908C6.127 8.57035 6.58972 8.67877 6.80859 9.0303C6.89479 9.16875 6.95146 9.24426 7.06348 9.31155C7.18286 9.38321 7.44266 9.48668 7.99316 9.4883H8.01758C9.00356 9.48439 9.07725 8.99076 9.07812 9.01955C9.07804 8.92395 9.05731 8.8949 9.05371 8.88967C9.04524 8.87741 9.01575 8.84152 8.92285 8.79494C8.70312 8.68484 8.37182 8.62308 7.88086 8.54104C7.4602 8.47075 6.8789 8.38001 6.41504 8.14748C6.16662 8.0229 5.91078 7.83971 5.71973 7.56155C5.52383 7.27626 5.4317 6.94245 5.43164 6.58205C5.4318 5.68183 6.164 4.93011 7.25684 4.6924V4.54983C7.25696 4.13586 7.5929 3.80006 8.00684 3.79983Z"
    fill="currentColor"
  />
</svg>
