<svg width="12" height="12" viewBox="0 0 12 12" fill="none" xmlns="http://www.w3.org/2000/svg" data-fui-icon="true">
  <path
    d="M9.12761 0C10.0074 5.22526e-05 10.8023 0.525579 11.1471 1.33496L11.7009 2.63379C12.0382 3.42633 11.9187 4.26179 11.5007 4.90234V9.25C11.5007 10.7685 10.2691 11.9996 8.75066 12H3.25066C1.73198 11.9999 0.499689 10.7687 0.499683 9.25V4.90332C0.0812657 4.2627 -0.0389266 3.42664 0.298511 2.63379L0.852222 1.33496C1.19706 0.525614 1.99201 0.000152312 2.87175 0H9.12761ZM5.75066 7C5.06052 7.00025 4.50066 7.5598 4.50066 8.25V10.5H7.50066V8.25C7.50066 7.55997 6.94057 7.00053 6.25066 7H5.75066ZM2.87175 1.5C2.59323 1.50015 2.3413 1.6666 2.23211 1.92285L1.67937 3.2207C1.42145 3.82653 1.86574 4.4996 2.5241 4.5C2.98846 4.49993 3.37999 4.15333 3.43621 3.69238L3.70281 1.5H2.87175ZM4.99089 3.36328C4.91851 3.96771 5.39092 4.49975 5.99968 4.5C6.6086 4.49992 7.0809 3.96783 7.00847 3.36328L6.78386 1.5H5.2155L4.99089 3.36328ZM8.56316 3.69238C8.61933 4.15326 9.01101 4.49981 9.47527 4.5C10.1337 4.4998 10.5778 3.82753 10.32 3.22168L9.76726 1.92285C9.65802 1.66657 9.40621 1.50005 9.12761 1.5H8.29656L8.56316 3.69238Z"
    fill="currentColor"
  />
</svg>
