<svg width="32" height="32" viewBox="0 0 32 32" fill="none" xmlns="http://www.w3.org/2000/svg" data-fui-icon="true">
  <path
    d="M23.84 1C26.1912 1.00026 28.3257 2.37535 29.297 4.5166L30.4592 7.08105C31.5532 9.49305 30.7879 12.1142 29.0002 13.6543V26.2998C29.0001 28.8954 26.8956 30.9999 24.3 31H7.70037C5.10472 31 3.00026 28.8954 3.00017 26.2998V13.6553C1.2116 12.1153 0.446139 9.49338 1.54021 7.08105L2.7033 4.5166C3.67466 2.37533 5.80906 1.00017 8.16033 1H23.84ZM11.3049 12.5049C10.2941 14.0181 8.57369 14.9998 6.6447 15C6.06596 15 5.5153 14.9123 5.00017 14.7559V26.2998C5.00026 27.7909 6.20929 29 7.70037 29H11.0002V21.9199C11.0003 20.3075 12.3076 19.0001 13.9201 19H18.0802C19.6927 19.0002 21 20.3075 21.0002 21.9199V29H24.3C25.791 28.9999 27.0001 27.7908 27.0002 26.2998V14.7549C26.4849 14.9114 25.9346 15 25.3556 15C23.4265 14.9999 21.7043 14.0192 20.6935 12.5059C19.6803 14.0013 17.9692 14.9999 16.0002 15C14.0304 15 12.318 14.0012 11.3049 12.5049ZM13.9201 21C13.4122 21.0001 13.0003 21.412 13.0002 21.9199V29H19.0002V21.9199C19 21.4121 18.5881 21.0002 18.0802 21H13.9201ZM8.16033 3C6.59404 3.00017 5.17278 3.91646 4.52556 5.34277L3.36248 7.90723C2.28016 10.2932 4.02469 13 6.6447 13C8.46813 12.9997 10.0047 11.6375 10.2228 9.82715L11.0451 3H8.16033ZM12.3586 8.89844C12.0987 11.0804 13.8028 13 16.0002 13C18.1972 12.9998 19.9013 11.0811 19.6418 8.89941L18.9396 3H13.0607L12.3586 8.89844ZM21.7775 9.82715C21.9957 11.6376 23.5321 12.9998 25.3556 13C27.9755 12.9999 29.72 10.2932 28.6379 7.90723L27.4748 5.34277C26.8276 3.91648 25.4063 3.00026 23.84 3H20.9552L21.7775 9.82715Z"
    fill="currentColor"
  />
</svg>
