<svg width="32" height="32" viewBox="0 0 32 32" fill="none" xmlns="http://www.w3.org/2000/svg" data-fui-icon="true">
  <path
    d="M23.4596 1.00046C26.0366 1.00058 28.3702 2.5234 29.4078 4.88229L30.6002 7.59225C31.7316 10.1648 30.9037 12.9397 28.9996 14.5708V26.5503C28.9992 29.0075 27.0068 31.0005 24.5494 31.0005H7.44982C4.99264 31.0002 3.00008 29.0074 2.99963 26.5503V14.5698C1.09636 12.9386 0.268053 10.1642 1.39904 7.59225L2.59143 4.88229C3.62898 2.52354 5.96285 1.00076 8.53967 1.00046H23.4596ZM14.6696 19.0005C13.1952 19.0007 11.9997 20.196 11.9996 21.6704V28.0005H19.9996V21.6704C19.9995 20.1959 18.8042 19.0005 17.3297 19.0005H14.6696ZM8.53967 4.00046C7.15257 4.00076 5.89603 4.82056 5.33752 6.0903L4.14514 8.80026C3.27529 10.7789 4.72493 13.0001 6.88635 13.0005C8.40536 13.0005 9.68428 11.8626 9.86096 10.354L10.6031 4.00046H8.53967ZM12.9772 9.60886C12.7689 11.4149 14.1816 13.0002 15.9996 13.0005C17.8179 13.0004 19.2304 11.4151 19.0221 9.60886L18.3746 4.00046H13.6246L12.9772 9.60886ZM22.1383 10.354C22.3149 11.8625 23.5941 13.0002 25.1129 13.0005C27.2747 13.0004 28.7244 10.7791 27.8541 8.80026L26.6617 6.0903C26.1032 4.82042 24.8469 4.00058 23.4596 4.00046H21.3961L22.1383 10.354Z"
    fill="currentColor"
  />
</svg>
