<svg width="13" height="12" viewBox="0 0 13 12" fill="none" xmlns="http://www.w3.org/2000/svg" data-fui-icon="true">
  <path
    d="M9.27472 0C10.2549 0 11.1406 0.585545 11.5247 1.4873L12.0775 2.78516C12.5014 3.78039 12.2723 4.83729 11.6478 5.56836V8.9375C11.6478 10.6285 10.2761 11.9994 8.58527 12H3.71027C2.01901 11.9999 0.646796 10.6288 0.646791 8.9375V5.56934C0.0215866 4.83824 -0.207916 3.78082 0.216127 2.78516L0.768861 1.4873C1.15293 0.585553 2.03873 6.57022e-05 3.01886 0H9.27472ZM5.99738 7.25C5.25223 7.25034 4.648 7.85444 4.64777 8.59961V10H7.64777V8.59961C7.64753 7.85471 7.04292 7.25079 6.29816 7.25H5.99738ZM3.01886 2C2.84047 2.00007 2.67866 2.1064 2.6087 2.27051L2.05597 3.56934C1.86837 4.0103 2.19201 4.49975 2.6712 4.5C3.00928 4.5 3.29437 4.24769 3.33527 3.91211L3.56769 2H3.01886ZM5.38605 3.64258C5.33123 4.09846 5.68766 4.49988 6.14679 4.5C6.60603 4.5 6.96237 4.09853 6.90753 3.64258L6.71027 2H5.58331L5.38605 3.64258ZM8.95831 3.91211C8.99918 4.24764 9.28438 4.49992 9.62238 4.5C10.1017 4.49989 10.4253 4.01036 10.2376 3.56934L9.68488 2.27051C9.61489 2.10638 9.45316 2 9.27472 2H8.72589L8.95831 3.91211Z"
    fill="currentColor"
  />
</svg>
