<svg width="24" height="24" viewBox="0 0 24 24" fill="none" xmlns="http://www.w3.org/2000/svg" data-fui-icon="true">
  <path
    d="M17.4523 1C19.4256 1.00014 21.1955 2.21569 21.9035 4.05762L22.7277 6.20117C23.3222 7.74841 22.9532 9.35812 21.9992 10.4883C21.9992 10.4922 22.0002 10.4961 22.0002 10.5V19.2246C22 21.3092 20.3093 22.9997 18.2248 23H5.77556C3.69084 22.9999 2.0003 21.3093 2.00017 19.2246V10.4893C1.04583 9.35905 0.677983 7.74863 1.27263 6.20117L2.09685 4.05762C2.80491 2.21565 4.57461 1 6.54802 1H17.4523ZM15.4035 10.3896C14.5996 11.3674 13.3813 11.9999 12.0002 12C10.6185 12 9.39886 11.3679 8.59489 10.3896C7.80887 11.3757 6.59926 11.9998 5.257 12C4.81528 12 4.39431 11.9319 4.00017 11.8115V19.2246C4.0003 20.2047 4.79541 20.9999 5.77556 21H8.00017V16.4404C8.0003 15.093 9.09318 14.0001 10.4406 14H13.5597C14.907 14.0003 16 15.0931 16.0002 16.4404V21H18.2248C19.2048 20.9997 20 20.2046 20.0002 19.2246V11.8115C19.606 11.932 19.1852 12 18.7433 12C17.4006 12 16.1896 11.3763 15.4035 10.3896ZM10.4406 16C10.1977 16.0001 10.0003 16.1976 10.0002 16.4404V21H14.0002V16.4404C14 16.1977 13.8024 16.0003 13.5597 16H10.4406ZM6.54802 3C5.40229 3 4.37512 3.70597 3.96403 4.77539L3.13981 6.91895C2.56925 8.4042 3.66586 10 5.257 10C6.40745 9.99975 7.37543 9.13784 7.50896 7.99512L8.09294 3H6.54802ZM9.60954 7.31738C9.4446 8.7464 10.5616 10 12.0002 10C13.4385 9.99979 14.5557 8.74626 14.3908 7.31738L13.8927 3H10.1076L9.60954 7.31738ZM16.4914 7.99512C16.6249 9.13798 17.5927 9.99994 18.7433 10C20.3343 9.99978 21.4309 8.40407 20.8605 6.91895L20.0363 4.77539C19.6253 3.70601 18.5979 3.00014 17.4523 3H15.9074L16.4914 7.99512Z"
    fill="currentColor"
  />
</svg>
