<svg width="20" height="20" viewBox="0 0 20 20" fill="none" xmlns="http://www.w3.org/2000/svg" data-fui-icon="true">
  <path
    d="M14.5322 1C16.0251 1.00008 17.3774 1.88134 17.9804 3.24707L18.6992 4.875C19.3103 6.25981 18.9402 7.74713 17.9999 8.70996V15.9365C17.9999 15.9893 17.9987 16.0417 17.996 16.0938C17.9907 16.1984 17.9803 16.3017 17.9648 16.4033C17.9493 16.5047 17.9284 16.6043 17.9033 16.7021C17.664 17.6315 16.9998 18.3908 16.1298 18.7588C15.9925 18.8169 15.8498 18.8646 15.7031 18.9023C15.5072 18.9528 15.3037 18.9845 15.0947 18.9951C15.0426 18.9977 14.9901 18.999 14.9374 18.999H5.06243C5.00973 18.999 4.95726 18.9977 4.90521 18.9951C4.69621 18.9845 4.49269 18.9528 4.29681 18.9023C4.15012 18.8646 4.00737 18.8169 3.87005 18.7588C3.00009 18.3908 2.33591 17.6315 2.09661 16.7021C2.07143 16.6043 2.05059 16.5047 2.03509 16.4033C2.01954 16.3017 2.00914 16.1984 2.00384 16.0938C2.00121 16.0417 1.99994 15.9893 1.99993 15.9365V8.70996C1.0599 7.74716 0.689554 6.25979 1.30072 4.875L2.01947 3.24707C2.62244 1.88139 3.97483 1.00012 5.46771 1H14.5322ZM9.45013 12C8.37328 12 7.50007 12.8734 7.49993 13.9502V17.0879C7.49996 17.2309 7.52182 17.3689 7.56146 17.499H12.4384C12.478 17.3689 12.4999 17.231 12.4999 17.0879V13.9502C12.4998 12.8734 11.6266 12 10.5497 12H9.45013ZM5.46771 2.5C4.56885 2.50012 3.7545 3.03118 3.39154 3.85352L2.67279 5.48047C2.09739 6.78431 3.05237 8.24971 4.47747 8.25C5.47808 8.25 6.31992 7.50063 6.43646 6.50684L6.90618 2.5H5.46771ZM8.01068 6.0166C7.8729 7.2059 8.80273 8.24982 9.99993 8.25C11.1972 8.24987 12.127 7.20593 11.9892 6.0166L11.582 2.5H8.4179L8.01068 6.0166ZM13.5624 6.50684C13.6789 7.50043 14.5211 8.24963 15.5214 8.25C16.9468 8.25 17.9017 6.78449 17.3261 5.48047L16.6083 3.85352C16.2453 3.03121 15.431 2.50008 14.5322 2.5H13.0927L13.5624 6.50684Z"
    fill="currentColor"
  />
</svg>
