<svg width="16" height="16" viewBox="0 0 16 16" fill="none" xmlns="http://www.w3.org/2000/svg" data-fui-icon="true">
  <path
    d="M11.9057 1C12.8639 1.00019 13.7336 1.56358 14.1244 2.43848L14.7533 3.84766C15.1832 4.81034 15.0152 5.83677 14.4701 6.5957C14.4888 6.66058 14.5004 6.72879 14.5004 6.7998V11.9375C14.5003 13.6286 13.1289 14.9997 11.4379 15H4.56289C2.87167 14.9999 1.50045 13.6287 1.50039 11.9375V6.7998C1.5004 6.73031 1.50981 6.66323 1.52773 6.59961C0.980786 5.84036 0.814031 4.81155 1.24453 3.84766L1.87441 2.43848C2.26523 1.56371 3.13411 1.00026 4.09218 1H11.9057ZM7.50039 9C6.67207 9.00013 6.00039 9.67165 6.00039 10.5V13.5H10.0004V10.5C10.0004 9.67177 9.32854 9.00033 8.50039 9H7.50039ZM4.09218 2.5C3.72587 2.50026 3.394 2.71632 3.24453 3.05078L2.61464 4.45996C2.23914 5.30099 2.85472 6.24987 3.77578 6.25C4.41548 6.24969 4.95639 5.77423 5.0375 5.13965L5.37441 2.5H4.09218ZM6.61269 4.67676C6.5074 5.51157 7.15801 6.24989 7.99941 6.25C8.84064 6.24972 9.49137 5.51145 9.38613 4.67676L9.11171 2.5H6.8871L6.61269 4.67676ZM10.9613 5.13965C11.0424 5.77432 11.5832 6.24987 12.223 6.25C13.1439 6.24967 13.7595 5.30084 13.3842 4.45996L12.7543 3.05078C12.6048 2.71621 12.2721 2.50019 11.9057 2.5H10.6244L10.9613 5.13965Z"
    fill="currentColor"
  />
</svg>
