<svg width="16" height="16" viewBox="0 0 16 16" fill="none" xmlns="http://www.w3.org/2000/svg" data-fui-icon="true">
  <path
    d="M12.1504 9.44975C12.5921 9.11872 13.2185 9.20842 13.5498 9.64994L15.0498 11.6499C15.3163 12.0054 15.3161 12.4937 15.0498 12.8492L13.5498 14.8492C13.2185 15.2909 12.5922 15.3806 12.1504 15.0494C11.7088 14.718 11.619 14.0917 11.9502 13.6499L12.251 13.2496H10.9238C9.6969 13.2496 8.55325 12.6273 7.88672 11.5972C7.58717 11.1336 7.7201 10.5143 8.18359 10.2144C8.64714 9.91483 9.26642 10.048 9.56641 10.5113C9.86441 10.9716 10.3755 11.2496 10.9238 11.2496H12.251L11.9502 10.8492C11.6192 10.4074 11.7087 9.78102 12.1504 9.44975ZM12.1504 0.949749C12.5921 0.618726 13.2185 0.708421 13.5498 1.14994L15.0498 3.14994C15.3163 3.50536 15.3161 3.99369 15.0498 4.34916L13.5498 6.34916C13.2185 6.79094 12.5922 6.88059 12.1504 6.54936C11.7088 6.21799 11.619 5.59171 11.9502 5.14994L12.251 4.74955H11.4082C10.2971 4.74956 9.27678 5.36437 8.75684 6.34623L6.51074 10.5894C5.6442 12.2261 3.94371 13.2495 2.0918 13.2496H1.75C1.19772 13.2496 0.75 12.8018 0.75 12.2496C0.750192 11.6974 1.19783 11.2496 1.75 11.2496H2.0918C3.20295 11.2495 4.22327 10.6349 4.74316 9.65287L6.98926 5.40971C7.85585 3.77322 9.55639 2.74956 11.4082 2.74955H12.251L11.9502 2.34916C11.6192 1.90736 11.7087 1.28102 12.1504 0.949749ZM2.57617 2.74955C3.803 2.74955 4.94673 3.37196 5.61328 4.4019C5.913 4.86549 5.77985 5.48471 5.31641 5.78471C4.85276 6.08447 4.23355 5.95141 3.93359 5.48783C3.63557 5.02767 3.12445 4.74955 2.57617 4.74955H1.75C1.19772 4.74955 0.75 4.30184 0.75 3.74955C0.750189 3.19743 1.19783 2.74955 1.75 2.74955H2.57617Z"
    fill="currentColor"
  />
</svg>
