<svg width="20" height="20" viewBox="0 0 20 20" fill="none" xmlns="http://www.w3.org/2000/svg" data-fui-icon="true">
  <path
    d="M14.79 11.097C15.4264 10.5671 16.3721 10.6534 16.9023 11.2894L19.4023 14.2894C19.8656 14.8455 19.8654 15.6531 19.4023 16.2093L16.9023 19.2093C16.372 19.8456 15.4264 19.9319 14.79 19.4017C14.1539 18.8714 14.0676 17.9257 14.5977 17.2894L15.0479 16.7493H13.626C12.0786 16.7492 10.6252 16.0064 9.71875 14.7523C9.23379 14.0808 9.38432 13.1427 10.0557 12.6575C10.727 12.1726 11.6651 12.3234 12.1504 12.9945C12.4928 13.4683 13.0414 13.7492 13.626 13.7493H15.0479L14.5977 13.2093C14.0677 12.5729 14.1538 11.6272 14.79 11.097ZM14.79 0.597972C15.4265 0.0677899 16.372 0.153999 16.9023 0.790355L19.4023 3.79036C19.8654 4.34655 19.8656 5.15417 19.4023 5.71028L16.9023 8.71028C16.3721 9.34629 15.4264 9.43253 14.79 8.90266C14.1538 8.37245 14.0678 7.42677 14.5977 6.79036L15.0479 6.25032H14.3242C12.9968 6.25032 11.7745 6.97252 11.1338 8.13508L8.28027 13.3138C7.11193 15.4336 4.88241 16.7503 2.46191 16.7503H1.75C0.921732 16.7503 0.250253 16.0785 0.25 15.2503C0.25 14.4219 0.921576 13.7503 1.75 13.7503H2.46191C3.78923 13.7503 5.01163 13.028 5.65234 11.8656L8.50586 6.68684C9.67416 4.56687 11.9036 3.25032 14.3242 3.25032H15.0479L14.5977 2.71028C14.0675 2.07394 14.1539 1.12831 14.79 0.597972ZM3.15918 3.24934C4.70687 3.24934 6.16082 3.99302 7.06738 5.24739C7.55224 5.91867 7.40142 6.85589 6.73047 7.34114C6.05903 7.82632 5.12096 7.67562 4.63574 7.00422C4.29323 6.53044 3.74382 6.24934 3.15918 6.24934H1.75C0.921576 6.24934 0.25 5.57776 0.25 4.74934C0.250256 3.92113 0.921734 3.24934 1.75 3.24934H3.15918Z"
    fill="currentColor"
  />
</svg>
