<svg width="24" height="24" viewBox="0 0 24 24" fill="none" xmlns="http://www.w3.org/2000/svg" data-fui-icon="true">
  <path
    d="M4.84931 14.0539C5.26347 13.3555 6.34248 13.4053 6.66181 14.2033L7.21649 15.591C7.43442 16.1353 7.86647 16.5667 8.41083 16.7844L9.7995 17.3401C10.6499 17.681 10.6501 18.8852 9.7995 19.2258L8.41083 19.7805C7.86623 19.9983 7.43438 20.4303 7.21649 20.9748L6.66181 22.3625C6.32106 23.2129 5.11701 23.2127 4.77606 22.3625L4.2204 20.9748C4.00256 20.4304 3.57053 19.9983 3.02606 19.7805L1.63837 19.2258C0.787161 18.8853 0.787259 17.6807 1.63837 17.3401L3.02704 16.7844C3.57121 16.5666 4.00252 16.1352 4.2204 15.591L4.77606 14.2033L4.84931 14.0539ZM5.71845 17.0285C5.39584 17.5321 4.96817 17.9599 4.46454 18.2824C4.96807 18.6049 5.39587 19.0329 5.71845 19.5363C6.04101 19.0328 6.46879 18.605 6.97235 18.2824C6.46888 17.9599 6.04097 17.532 5.71845 17.0285ZM13.1462 2.04318C13.4572 0.695891 15.3258 0.653997 15.7341 1.9172L15.7692 2.04318L16.6286 5.76877C16.813 6.56698 17.4368 7.19094 18.235 7.37521L21.9616 8.23459C23.3526 8.55549 23.3526 10.5358 21.9616 10.8567L18.235 11.717C17.4369 11.9014 16.813 12.5243 16.6286 13.3225L15.7692 17.0481C15.448 18.4383 13.4674 18.4384 13.1462 17.0481L12.2868 13.3225C12.1024 12.5242 11.4787 11.9013 10.6804 11.717L6.9538 10.8567C5.56317 10.5356 5.56321 8.5557 6.9538 8.23459L10.6804 7.37521C11.4787 7.19102 12.1023 6.56701 12.2868 5.76877L13.1462 2.04318ZM14.235 6.21799C13.8786 7.76154 12.6732 8.96733 11.1296 9.32345L10.1657 9.54513L11.1296 9.76779C12.6733 10.1239 13.8787 11.3295 14.235 12.8733L14.4577 13.8371L14.6804 12.8733C15.0367 11.3296 16.2421 10.124 17.7858 9.76779L18.7487 9.54513L17.7858 9.32345C16.2422 8.96731 15.0368 7.76154 14.6804 6.21799L14.4577 5.25314L14.235 6.21799Z"
    fill="currentColor"
  />
</svg>
