<svg width="20" height="20" viewBox="0 0 20 20" fill="none" xmlns="http://www.w3.org/2000/svg" data-fui-icon="true">
  <path
    d="M4.16342 11.7349C4.45383 11.2457 5.17866 11.2457 5.46908 11.7349L5.52474 11.8472L5.98568 13.0005C6.17082 13.4631 6.53776 13.83 7.00033 14.0151L8.15267 14.4761C8.79167 14.7319 8.79158 15.6362 8.15267 15.8921L7.00033 16.353C6.53765 16.5383 6.17075 16.9059 5.98568 17.3687L5.52474 18.521C5.26883 19.16 4.36349 19.1602 4.10775 18.521L3.64682 17.3687C3.4617 16.9058 3.09504 16.5382 2.63217 16.353L1.47982 15.8921C0.841365 15.6361 0.841357 14.7322 1.47982 14.4761L2.63217 14.0151C3.09475 13.8301 3.46161 13.463 3.64682 13.0005L4.10775 11.8472L4.16342 11.7349ZM4.81576 14.0112C4.53044 14.4947 4.12735 14.8988 3.64389 15.1841C4.12721 15.4693 4.53043 15.8727 4.81576 16.356C5.10088 15.8729 5.50467 15.4694 5.98764 15.1841C5.50433 14.8986 5.10093 14.4947 4.81576 14.0112ZM11.0413 1.70166C11.3449 0.764198 12.6968 0.764122 13.0003 1.70166L13.0267 1.79932L13.7406 4.89307C13.8972 5.57153 14.4274 6.10157 15.1058 6.2583L18.1996 6.97217C19.2665 7.21876 19.2665 8.73825 18.1996 8.98486L15.1058 9.69873C14.4274 9.85548 13.8972 10.3855 13.7406 11.064L13.0267 14.1577C12.7803 15.2252 11.2603 15.2252 11.014 14.1577L10.3001 11.064C10.1434 10.3854 9.61347 9.85537 8.9349 9.69873L5.84213 8.98486C4.77477 8.73846 4.77484 7.21863 5.84213 6.97217L8.9349 6.2583C9.61339 6.10164 10.1434 5.57151 10.3001 4.89307L11.014 1.79932L11.0413 1.70166ZM11.762 5.22998C11.4765 6.46743 10.5102 7.43348 9.27279 7.71924L8.15072 7.97803L9.27279 8.23682C10.5103 8.5225 11.4764 9.48956 11.762 10.7271L12.0208 11.8481L12.2796 10.7271C12.5652 9.48953 13.5314 8.52246 14.7689 8.23682L15.89 7.97803L14.7689 7.71924C13.5314 7.43358 12.5652 6.46752 12.2796 5.22998L12.0208 4.10791L11.762 5.22998Z"
    fill="currentColor"
  />
</svg>
