<svg width="24" height="24" viewBox="0 0 24 24" fill="none" xmlns="http://www.w3.org/2000/svg" data-fui-icon="true">
  <path
    d="M4.90017 14.2568C5.19149 13.7648 5.92026 13.7649 6.21169 14.2568L6.26736 14.3691L6.84744 15.8193C7.09071 16.4272 7.57246 16.9101 8.18044 17.1533L9.63064 17.7333C10.2722 17.9902 10.2722 18.8985 9.63064 19.1552L8.18044 19.7353C7.57239 19.9785 7.09067 20.4602 6.84744 21.0683L6.26736 22.5185C6.0106 23.16 5.10232 23.16 4.84548 22.5185L4.2654 21.0683C4.02219 20.4603 3.53944 19.9786 2.93142 19.7353L1.48123 19.1552C0.839524 18.8985 0.839659 17.9902 1.48123 17.7333L2.93142 17.1533C3.53941 16.91 4.02216 16.4273 4.2654 15.8193L4.84548 14.3691L4.90017 14.2568ZM13.4314 1.84858C13.6848 0.751807 15.2065 0.717554 15.5388 1.74604L15.5672 1.84858L16.4656 5.74116C16.6714 6.63272 17.3679 7.32935 18.2595 7.5351L22.1511 8.43256C23.2831 8.69411 23.2831 10.3067 22.1511 10.5683L18.2595 11.4667C17.3681 11.6725 16.6716 12.3684 16.4656 13.2597L15.5672 17.1523C15.3058 18.2848 13.6928 18.2847 13.4314 17.1523L12.534 13.2597C12.3281 12.3684 11.6313 11.6726 10.74 11.4667L6.84744 10.5683C5.71519 10.3068 5.71514 8.69398 6.84744 8.43256L10.74 7.5351C11.6314 7.3292 12.3282 6.63263 12.534 5.74116L13.4314 1.84858Z"
    fill="currentColor"
  />
</svg>
