<svg width="13" height="12" viewBox="0 0 13 12" fill="none" xmlns="http://www.w3.org/2000/svg" data-fui-icon="true">
  <path
    d="M6.00049 6.5C6.92627 6.5 7.66212 6.80789 8.21338 7.28027C8.58067 7.09605 9.01329 7.00004 9.50049 7C10.5541 7.00005 11.2052 7.54877 11.562 8.08398C11.7335 8.34117 11.8382 8.59313 11.8999 8.77832C11.9311 8.872 11.9521 8.95218 11.9663 9.01172C11.9734 9.04151 11.979 9.06662 11.9829 9.08594L11.9897 9.12012C11.99 9.12134 11.9896 9.12298 11.9897 9.12402L11.9907 9.125C11.9907 9.12538 11.9852 9.12754 11.2505 9.25L11.9907 9.12695C12.0586 9.53525 11.7827 9.92192 11.3745 9.99023C10.9659 10.0583 10.5793 9.78161 10.5112 9.37305V9.37598L10.5073 9.35938C10.502 9.33696 10.4926 9.29964 10.4771 9.25293C10.445 9.15691 10.3924 9.03376 10.314 8.91602C10.1708 8.70136 9.9465 8.50004 9.50049 8.5C9.35549 8.50002 9.23407 8.5157 9.13232 8.53809C9.38797 9.1116 9.50049 9.71934 9.50049 10.25C9.50049 10.6642 9.1647 11 8.75049 11C8.33633 10.9999 8.00049 10.6642 8.00049 10.25C8.00049 9.75554 7.84807 9.16935 7.52197 8.72656C7.21682 8.31246 6.74734 8 6.00049 8C5.25367 8.00004 4.78414 8.31245 4.479 8.72656C4.15293 9.16934 4.00049 9.75557 4.00049 10.25C4.00049 10.6642 3.6647 11 3.25049 11C2.83633 10.9999 2.50049 10.6642 2.50049 10.25C2.50049 9.71936 2.61304 9.11158 2.86865 8.53809C2.76695 8.51573 2.64537 8.50002 2.50049 8.5C2.05464 8.50012 1.83012 8.7014 1.68701 8.91602C1.60857 9.03372 1.55592 9.15694 1.52393 9.25293C1.50838 9.29961 1.49899 9.33697 1.49365 9.35938L1.48975 9.37598V9.37305C1.48946 9.37474 1.48809 9.37624 1.48779 9.37793L1.48975 9.37598C1.48939 9.37765 1.48895 9.37899 1.48877 9.37988C1.4175 9.78469 1.03275 10.058 0.626465 9.99023C0.218411 9.92181 -0.0575934 9.53516 0.0102537 9.12695L0.750488 9.25C0.0167555 9.1277 0.0102451 9.12538 0.0102537 9.125L0.0112303 9.12402C0.0114072 9.12299 0.0110393 9.12133 0.0112303 9.12012L0.0180662 9.08594C0.0219296 9.06663 0.02758 9.04149 0.0346678 9.01172C0.0488466 8.95219 0.0698613 8.87197 0.101074 8.77832C0.1628 8.59316 0.267563 8.34113 0.438965 8.08398C0.795793 7.54881 1.447 7.00013 2.50049 7C2.98726 7.00004 3.41954 7.09637 3.78662 7.28027C4.33793 6.80757 5.07437 6.50003 6.00049 6.5ZM1.87549 3.75C2.49681 3.75 3.00049 4.25368 3.00049 4.875C3.00049 5.49632 2.49681 6 1.87549 6C1.25421 5.99995 0.750488 5.49629 0.750488 4.875C0.750488 4.25371 1.25421 3.75005 1.87549 3.75ZM10.1255 3.75C10.7468 3.75 11.2505 4.25368 11.2505 4.875C11.2505 5.49632 10.7468 6 10.1255 6C9.50421 5.99995 9.00049 5.49629 9.00049 4.875C9.00049 4.25371 9.50421 3.75005 10.1255 3.75ZM6.00049 1C7.24313 1 8.25049 2.00736 8.25049 3.25C8.25049 4.49264 7.24313 5.5 6.00049 5.5C4.7579 5.49994 3.75049 4.4926 3.75049 3.25C3.75049 2.0074 4.7579 1.00006 6.00049 1ZM6.00049 2.5C5.58633 2.50006 5.25049 2.83583 5.25049 3.25C5.25049 3.66417 5.58633 3.99994 6.00049 4C6.4147 4 6.75049 3.66421 6.75049 3.25C6.75049 2.83579 6.4147 2.5 6.00049 2.5Z"
    fill="currentColor"
  />
</svg>
