<svg width="16" height="16" viewBox="0 0 16 16" fill="none" xmlns="http://www.w3.org/2000/svg" data-fui-icon="true">
  <path
    d="M15.7884 3.64944C15.7884 5.63945 14.9225 7.8409 13.7914 9.90042C12.6499 11.9786 11.1855 14.0045 9.88217 15.6651C9.71351 15.8798 9.45801 16 9.19272 16H3.44369C3.017 16 2.65223 15.6929 2.57944 15.2725L0.247405 1.80472C0.16007 1.30025 0.521813 0.828228 1.03158 0.78128L5.95444 0.330109C6.39521 0.289685 6.79167 0.583145 6.88901 1.00589L6.90463 1.09183L7.85776 8.50003C8.1002 8.02347 8.33174 7.52949 8.53354 7.03616C8.98806 5.92497 9.26987 4.88897 9.26987 4.09866C9.26985 3.19199 9.12321 2.59634 8.9144 2.12991C8.69111 1.63125 8.97167 1.01687 9.54721 0.904327L14.0169 0.0303039L14.1497 0.0146789C14.4158 0.00400143 14.6769 0.115539 14.8529 0.323273L14.9339 0.435577L15.141 0.803741C15.5878 1.6691 15.7884 2.58004 15.7884 3.64944Z"
    fill="currentColor"
  />
</svg>
