<svg width="24" height="24" viewBox="0 0 24 24" fill="none" xmlns="http://www.w3.org/2000/svg" data-fui-icon="true">
  <path
    d="M23.6703 5.24904C23.6703 8.23062 22.3688 11.5712 20.6234 14.749C18.8676 17.9458 16.6103 21.0697 14.5941 23.6387C14.4122 23.8703 14.1367 23.9999 13.85 24H4.92808C4.46742 23.9998 4.07406 23.6678 3.99547 23.2139L0.377303 2.31545C0.283221 1.77065 0.673376 1.26145 1.22398 1.21096L8.86265 0.510761L8.9564 0.506854C9.39378 0.509884 9.77327 0.814038 9.87144 1.24025L9.88805 1.33303L11.5326 14.1192C12.1338 13.0349 12.7241 11.8475 13.2093 10.6612C13.9213 8.92053 14.3822 7.25348 14.3822 5.94631C14.3822 4.4909 14.146 3.50725 13.7943 2.7217C13.5523 2.18086 13.858 1.5179 14.4789 1.3965L21.4144 0.0400575C21.7494 -0.0254423 22.0965 0.0945214 22.3177 0.356464L22.4037 0.476581L22.5628 0.748065C23.327 2.10944 23.6702 3.53424 23.6703 5.24904Z"
    fill="currentColor"
  />
</svg>
