<svg width="32" height="32" viewBox="0 0 32 32" fill="none" xmlns="http://www.w3.org/2000/svg" data-fui-icon="true">
  <path
    d="M30.5822 7.44921C30.5822 11.1745 28.9543 15.3691 26.7483 19.3857C24.5319 23.4211 21.6809 27.368 19.1301 30.6182C18.9382 30.8626 18.647 30.9999 18.344 31H7.04416C6.55782 31 6.14194 30.65 6.05881 30.1709L1.4758 3.69921C1.37627 3.12404 1.78807 2.58654 2.36935 2.53319L12.0451 1.6455L12.1447 1.64159C12.6062 1.6451 13.007 1.96628 13.1106 2.416L13.1281 2.51366L15.2883 19.3076C16.1541 17.7918 17.0203 16.0854 17.718 14.3799C18.6231 12.1672 19.218 10.0268 19.218 8.33202C19.218 6.46518 18.9152 5.19087 18.4563 4.166C18.2 3.59346 18.524 2.8927 19.1789 2.76464L27.9641 1.04686L28.1164 1.02928C28.4704 1.01528 28.8156 1.19036 29.008 1.5078C30.0959 3.30269 30.5822 5.16466 30.5822 7.44921Z"
    fill="currentColor"
  />
</svg>
