<svg width="16" height="16" viewBox="0 0 16 16" fill="none" xmlns="http://www.w3.org/2000/svg" data-fui-icon="true">
  <path
    d="M16 11.8666C16 13.2657 14.8659 14.3998 13.4668 14.3998H2.5332C1.13414 14.3998 0 13.2657 0 11.8666V6.25043H16V11.8666ZM6.69824 7.96136C6.53165 7.86631 6.3244 7.98642 6.32422 8.17816V12.1459C6.32432 12.3372 6.53066 12.4578 6.69727 12.3637L10.1904 10.3901C10.3594 10.2946 10.36 10.0507 10.1914 9.95453L6.69824 7.96136ZM1.27637 5.00043H0V4.13324C7.17651e-05 2.73422 1.13419 1.60011 2.5332 1.60004H4.67676L1.27637 5.00043ZM5.77637 5.00043H3.04492L6.39941 1.64496C6.41331 1.63106 6.42421 1.61487 6.43652 1.60004H9.17676L5.77637 5.00043ZM13.5771 1.60492L10.1826 5.00043H7.54492L10.8994 1.64496C10.9133 1.63106 10.9242 1.61487 10.9365 1.60004H13.4668C13.5038 1.60004 13.5405 1.60335 13.5771 1.60492ZM14.9023 2.0473C15.565 2.5042 16 3.2675 16 4.13324V5.00043H11.9502L14.9023 2.0473Z"
    fill="currentColor"
  />
</svg>
