<svg width="12" height="12" viewBox="0 0 12 12" fill="none" xmlns="http://www.w3.org/2000/svg" data-fui-icon="true">
  <path
    d="M0 5.18457C0.0849079 5.22772 0.179485 5.25488 0.28125 5.25488H12V9.09961C12 10.149 11.149 11 10.0996 11H1.90039C0.85105 11 0 10.149 0 9.09961V5.18457ZM4.9375 6.4209C4.80419 6.34495 4.63867 6.44127 4.63867 6.59473V9.71094C4.63888 9.8639 4.80426 9.96004 4.9375 9.88477L7.68164 8.33398C7.81631 8.25743 7.81631 8.06317 7.68164 7.98633L4.9375 6.4209ZM1.66602 4.00488H0.28125C0.179683 4.00488 0.0847863 4.03123 0 4.07422V2.90039C0 1.85105 0.85105 1 1.90039 1H4.6709L1.66602 4.00488ZM6.0957 4.00488H3.43457L6.22266 1.21582C6.28598 1.1525 6.33282 1.07844 6.36328 1H9.10059L6.0957 4.00488ZM10.7471 1.11523C11.4775 1.3801 12 2.07853 12 2.90039V4.00488H7.86426L10.7236 1.14551C10.7327 1.13645 10.7387 1.12469 10.7471 1.11523Z"
    fill="currentColor"
  />
</svg>
