<svg width="24" height="24" viewBox="0 0 24 24" fill="none" xmlns="http://www.w3.org/2000/svg" data-fui-icon="true">
  <path
    d="M23 17.4375C23 19.405 21.405 21 19.4375 21H4.5625C2.59499 21 1 19.405 1 17.4375V10H23V17.4375ZM10.0488 12.1416C9.79889 11.9993 9.48828 12.1801 9.48828 12.4678V18.3105C9.48829 18.5977 9.79787 18.778 10.0479 18.6367L15.1934 15.7305C15.4467 15.5873 15.4471 15.2224 15.1943 15.0781L10.0488 12.1416ZM1.49902 8.5H1V6.5625C1 4.59499 2.59499 3 4.5625 3H6.99902L1.49902 8.5ZM19.4375 3C19.7209 3 19.9964 3.03413 20.2607 3.09668L14.8584 8.5H10.3701L15.8428 3.02734C15.8514 3.01869 15.859 3.00896 15.8672 3H19.4375ZM21.6816 3.79688C22.4856 4.45006 23 5.44589 23 6.5625V8.5H16.9795L21.6816 3.79688ZM8.24902 8.5H3.62012L9.09277 3.02734C9.10143 3.01869 9.10905 3.00896 9.11719 3H13.749L8.24902 8.5Z"
    fill="currentColor"
  />
</svg>
